<svg id="adresse-21x30" xmlns="http://www.w3.org/2000/svg" width="20.999" height="30" viewBox="0 0 20.999 30">
  <path id="Path_34175" d="M10.562,25.5h0a1.235,1.235,0,0,1-.586-.178A27.681,27.681,0,0,1,2.719,18.5,13.84,13.84,0,0,1,0,10.7a10.749,10.749,0,0,1,5.3-9.3,10.333,10.333,0,0,1,10.552.086A10.882,10.882,0,0,1,19.637,5.5,11.128,11.128,0,0,1,21,10.892c-.065,3.357-1.766,6.966-4.788,10.163a28.126,28.126,0,0,1-5.038,4.23,1.759,1.759,0,0,1-.61.216ZM10.489,7.272A3.513,3.513,0,0,0,7.97,8.331a3.668,3.668,0,0,0-.779,3.961,3.554,3.554,0,0,0,3.3,2.246h.025a3.491,3.491,0,0,0,2.5-1.053,3.683,3.683,0,0,0-1.152-5.933A3.493,3.493,0,0,0,10.489,7.272Z" fill="#7398fd"/>
  <ellipse id="Ellipse_743" cx="7.5" cy="1.5" rx="7.5" ry="1.5" transform="translate(3 27)" fill="#7398fd" opacity="0.4"/>
</svg>
