<svg id="bloquer-20x20" xmlns="http://www.w3.org/2000/svg" width="19.999" height="20" viewBox="0 0 19.999 20">
  <path id="Path_2408" data-name="Path 2408" d="M854.93,507.515l7.41-7.4a5.288,5.288,0,0,0-9.53,3.17v.03A5.259,5.259,0,0,0,854.93,507.515Z" transform="translate(-848.126 -497.975)" fill="#f9547b"/>
  <path id="Path_2409" data-name="Path 2409" d="M867.87,498.235a.846.846,0,0,0-1.2-.02c0,.01-.01.02-.02.03l-3.49,3.478-6.11,6.107-.5.5-3.28,3.278-.01.01-3.14,3.128v.01l-1.78,1.779a.35.35,0,0,0-.07.09l-.03.04a.892.892,0,0,0,.13,1.049,1,1,0,0,0,.61.25.908.908,0,0,0,.61-.25l1.32-1.309c1.31,1.209,4.08,1.569,7.2,1.569,4.31,0,8-.67,8-3.4s-3.66-3.418-8-3.418c-.69,0-1.37.02-2.02.06l2.7-2.7a5.262,5.262,0,0,0,4.55-4.528l4.54-4.518v-.01l-.01-.01A.856.856,0,0,0,867.87,498.235Z" transform="translate(-848.126 -497.975)" fill="#f9547b"/>
</svg>
