<svg xmlns="http://www.w3.org/2000/svg" width="40.79" height="40.634" viewBox="0 0 40.79 40.634">
  <g id="Group_1698" data-name="Group 1698" transform="translate(-74.164 -5.48)">
    <path id="Fill_1" data-name="Fill 1" d="M40.79,20.317A20.4,20.4,0,1,1,20.4,0a20.355,20.355,0,0,1,20.4,20.317" transform="translate(74.164 5.48)" fill="#f9547b"/>
    <path id="Fill_4" data-name="Fill 4" d="M12.135,22.985a1.968,1.968,0,0,1-1-.272L.947,16.658A1.947,1.947,0,0,1,0,14.99V1.939a1.947,1.947,0,0,1,3.894,0V13.888l9.241,5.49a1.94,1.94,0,0,1-1,3.607" transform="translate(91.701 12.675)" fill="#fff"/>
  </g>
</svg>
