<svg id="email-icone-30x27" xmlns="http://www.w3.org/2000/svg" width="30" height="27.001" viewBox="0 0 30 27.001">
  <path id="Fill_1" data-name="Fill 1" d="M30,10.715a7.57,7.57,0,0,1-7.545,7.59H7.575A7.57,7.57,0,0,1,0,10.745V10.73S.009,4.091.021.752A.748.748,0,0,1,1.233.164C4.8,2.991,11.17,8.147,11.25,8.214a6.1,6.1,0,0,0,3.8,1.335A6.02,6.02,0,0,0,18.84,8.2c.08-.052,6.311-5.054,9.929-7.928a.75.75,0,0,1,1.216.585C30,4.169,30,10.715,30,10.715" transform="translate(0 8.696)" fill="#7398fd" opacity="0.4"/>
  <path id="Fill_4" data-name="Fill 4" d="M28.459,4.011A7.553,7.553,0,0,0,21.79,0H6.82A7.553,7.553,0,0,0,.151,4.011,1.3,1.3,0,0,0,.483,5.628L11.62,14.536a4.24,4.24,0,0,0,2.67.943h.03a4.24,4.24,0,0,0,2.67-.943L28.128,5.628a1.3,1.3,0,0,0,.332-1.617" transform="translate(0.755)" fill="#7398fd"/>
</svg>
