<svg id="facebook-icone-17x16" xmlns="http://www.w3.org/2000/svg" width="18" height="18" viewBox="0 0 18 18">
  <path id="Path_39" data-name="Path 39" d="M-128.163-338.291V-344.6c.032,0,.062-.006.092-.006.628,0,1.256,0,1.883,0,.092,0,.121-.033.134-.117q.183-1.224.37-2.447a.453.453,0,0,0,0-.057h-2.476c0-.04-.01-.07-.01-.1,0-.553-.005-1.106,0-1.659a1.314,1.314,0,0,1,.433-1.036,1.34,1.34,0,0,1,.859-.309c.384-.013.769-.007,1.153-.009h.152v-.167c0-.648,0-1.3,0-1.944,0-.091-.019-.129-.117-.143a12.024,12.024,0,0,0-2.1-.151,3.453,3.453,0,0,0-1.788.516,2.963,2.963,0,0,0-1.32,2.045,6.03,6.03,0,0,0-.091.977c-.014.612,0,1.225,0,1.837v.138h-2.277v2.621H-131v6.319a8.994,8.994,0,0,1-7.576-8.594,8.995,8.995,0,0,1,8.852-9.4,8.984,8.984,0,0,1,9.141,9.165A8.989,8.989,0,0,1-128.163-338.291Z" transform="translate(138.581 356.291)" fill="#1876f1"/>
</svg>
