<svg id="filtre" xmlns="http://www.w3.org/2000/svg" width="20" height="16" viewBox="0 0 20 16">
  <g id="Filter" transform="translate(0 -3)">
    <path id="Filter-2" data-name="Filter" d="M12.475,15.286A3.763,3.763,0,1,1,16.237,19,3.742,3.742,0,0,1,12.475,15.286Zm1.765,0a2,2,0,1,0,2-1.972A1.987,1.987,0,0,0,14.24,15.286ZM.883,16.157a.871.871,0,1,1,0-1.742H8.117a.871.871,0,1,1,0,1.742ZM0,6.713A3.742,3.742,0,0,1,3.762,3a3.714,3.714,0,1,1,0,7.428A3.742,3.742,0,0,1,0,6.713Zm1.765,0a2,2,0,1,0,2-1.972A1.987,1.987,0,0,0,1.765,6.713Zm10.118.872a.871.871,0,1,1,0-1.742h7.235a.871.871,0,1,1,0,1.742Z" fill="#1e2d60"/>
  </g>
</svg>
