<svg id="mot-pass-30x30" xmlns="http://www.w3.org/2000/svg" width="30" height="30" viewBox="0 0 30 30">
  <path id="Fill_1" data-name="Fill 1" d="M21.5,0H8.5C3.414,0,0,3.567,0,8.875v12.25C0,26.433,3.414,30,8.5,30h13c5.084,0,8.5-3.567,8.5-8.874V8.875C30,3.567,26.585,0,21.5,0" fill="#40cdde" opacity="0.4"/>
  <path id="Combined_Shape" data-name="Combined Shape" d="M16.17,7.8a1.114,1.114,0,0,1-1.126-1.126V5.025H13.05v1.65A1.127,1.127,0,0,1,11.925,7.8,1.113,1.113,0,0,1,10.8,6.674V5.025H7.619A3.85,3.85,0,0,1,3.915,7.8a3.9,3.9,0,1,1,0-7.8,3.849,3.849,0,0,1,3.7,2.776H16.17A1.126,1.126,0,0,1,17.295,3.9V6.674A1.126,1.126,0,0,1,16.17,7.8ZM3.915,2.25A1.65,1.65,0,1,0,5.565,3.9,1.659,1.659,0,0,0,3.915,2.25Z" transform="translate(6.351 11.098)" fill="#40cdde"/>
</svg>
