<svg xmlns="http://www.w3.org/2000/svg" width="50" height="50" viewBox="0 0 50 50">
  <g id="je-donne-50x50" transform="translate(1276 -894)">
    <rect id="Rectangle_1796" data-name="Rectangle 1796" width="50" height="50" rx="25" transform="translate(-1226 944) rotate(180)" fill="#d6f8f1"/>
    <path id="icons8-sell" d="M6.067,0A1.019,1.019,0,0,0,5.05,1.017V11.188a1.019,1.019,0,0,0,1.017,1.017H21.328a1.019,1.019,0,0,0,1.017-1.017V1.017A1.019,1.019,0,0,0,21.328,0Zm5.341,2.543h4.578a.763.763,0,1,1,0,1.526H11.408a.763.763,0,1,1,0-1.526ZM6.782,14.192c-1.272,0-2.394.455-6.565,2.336a.512.512,0,0,0-.254.667l2.7,5.991a.587.587,0,0,0,.3.3.509.509,0,0,0,.4-.048l1.383-.906c.61-.407.854-.471,1.669-.064l1.081.572c1.272.662,2.989,1.573,3.5,1.828a4.545,4.545,0,0,0,2.035.556,3.858,3.858,0,0,0,2.289-.811c.61-.407,8.05-5.248,8.712-5.705.815-.56,1.319-1.208,1.319-1.716.05-1.424-1.323-1.78-2.544-1.017l-5.453,3.655a3.744,3.744,0,0,1-2.13.461H12.171a13.934,13.934,0,0,1-3.1-.509.227.227,0,0,1-.159-.3.213.213,0,0,1,.3-.159h.064a13.247,13.247,0,0,0,3.052.509h2.893a1.527,1.527,0,0,0,.922-.254,1.416,1.416,0,0,0,.445-.509c0-.052.064-.046.064-.1v-.064a1.05,1.05,0,0,0,.048-.4c0-.61-.509-1.22-1.526-1.271a15.35,15.35,0,0,1-2.846-.509,7.044,7.044,0,0,1-1.081-.413,3.723,3.723,0,0,1-.509-.461A4.644,4.644,0,0,0,6.782,14.192Zm11.033.048a2.982,2.982,0,0,0-1.669.556c-.356.2-1.882,1.174-2.8,1.732a9.1,9.1,0,0,0,1.876.254,2.739,2.739,0,0,1,.97.207L19.5,14.748A3.422,3.422,0,0,0,17.815,14.24Zm3.354.509a3.723,3.723,0,0,0-1.971.763l-2.544,1.732a1.68,1.68,0,0,1,.6,1.271,1.809,1.809,0,0,1-.3.969L17,19.42l.048-.048,5.6-3.7C22.495,15.008,21.678,14.748,21.169,14.748Z" transform="translate(-1263.638 906.286)" fill="#34d9b8"/>
  </g>
</svg>
