<svg xmlns="http://www.w3.org/2000/svg" width="50" height="50" viewBox="0 0 50 50">
  <g id="je-vends-50x50" transform="translate(1276 -894)">
    <rect id="Rectangle_1796" data-name="Rectangle 1796" width="50" height="50" rx="25" transform="translate(-1226 944) rotate(180)" fill="#eee7fa"/>
    <g id="je-vends-19x17" transform="translate(-1268 908)">
      <path id="icons8-sell_stock" d="M2,2a.962.962,0,0,0-1,.92.963.963,0,0,0,1,.92H3.879a.487.487,0,0,1,.479.331L8.619,17.5A2.984,2.984,0,0,0,11.5,19.48H26a.923.923,0,1,0,0-1.84H11.5a.985.985,0,0,1-.959-.659L6.277,3.651h0A2.488,2.488,0,0,0,3.879,2Zm9,1.84a.962.962,0,0,0-1,.92.963.963,0,0,0,1,.92v8.28a1.924,1.924,0,0,0,2,1.84H25a1.924,1.924,0,0,0,2-1.84V5.68a.962.962,0,0,0,1-.92.963.963,0,0,0-1-.92Zm6,1.84h4a.963.963,0,0,1,1,.92.963.963,0,0,1-1,.92H17a.963.963,0,0,1-1-.92A.963.963,0,0,1,17,5.68ZM14,21.32A1.846,1.846,0,1,0,14,25a1.846,1.846,0,1,0,0-3.68Zm10,0a1.846,1.846,0,1,0,2,1.84A1.925,1.925,0,0,0,24,21.32Z" transform="translate(-1 -2)" fill="#aa87e5"/>
    </g>
  </g>
</svg>
