<svg xmlns="http://www.w3.org/2000/svg" width="50" height="50" viewBox="0 0 50 50">
  <g id="jai-besoin-50x50" transform="translate(1276 -894)">
    <rect id="Rectangle_1796" data-name="Rectangle 1796" width="50" height="50" rx="25" transform="translate(-1226 944) rotate(180)" fill="#d7f3ff"/>
    <g id="j-besoin-18x19" transform="translate(-1263 907)">
      <path id="icons8-demand" d="M676.782,343.1a1.986,1.986,0,0,0-2,1.974v7.895a1.987,1.987,0,0,0,2,1.974h4v3.047a1.49,1.49,0,0,0-.744.567h0l-2.753,3.289h-8.5a3.974,3.974,0,0,0-4,3.947v1.234a1.08,1.08,0,0,0,1.087,1.072h7.825a1.08,1.08,0,0,0,1.088-1.072V365.8l3.791-1.016a1.6,1.6,0,0,0,.189-.05l.025-.008h0a1.507,1.507,0,0,0,.717-.542l.012-.013v-.009l2.879-3.795a1.471,1.471,0,0,0,.377-.979v-4.443h4a1.988,1.988,0,0,0,2.009-1.965v-7.9a1.987,1.987,0,0,0-2-1.974Zm5,1.974a.994.994,0,0,1,1,.987v2.961a1,1,0,0,1-2,0v-2.961A.993.993,0,0,1,681.782,345.077Zm0,5.921a.987.987,0,1,1-1,.987A.994.994,0,0,1,681.782,351Zm-12,2.961a2.961,2.961,0,1,0,3,2.961A2.98,2.98,0,0,0,669.782,353.958Z" transform="translate(-664.782 -343.103)" fill="#38c2ff"/>
    </g>
  </g>
</svg>
