<svg xmlns="http://www.w3.org/2000/svg" width="50" height="50" viewBox="0 0 50 50">
  <g id="jorganise-50x50" transform="translate(1276 -894)">
    <rect id="Rectangle_1796" data-name="Rectangle 1796" width="50" height="50" rx="25" transform="translate(-1226 944) rotate(180)" fill="#fff4d9"/>
    <g id="jorganise-16x18" transform="translate(-1262 907)">
      <path id="Union_8" data-name="Union 8" d="M703.778,357.382a2.429,2.429,0,0,1-2.444-2.4v-16.8a2.43,2.43,0,0,1,2.444-2.4H705v-1.2a1.212,1.212,0,0,1,1.222-1.2h0a1.212,1.212,0,0,1,1.222,1.2v1.2h9.778v-1.2a1.212,1.212,0,0,1,1.222-1.2h0a1.212,1.212,0,0,1,1.222,1.2v1.2h1.222a2.431,2.431,0,0,1,2.445,2.4v16.8a2.429,2.429,0,0,1-2.445,2.4Zm0-2.4h17.111v-13.2H703.778Zm13.276-2.64L716,351.314l-1.054,1.033a.823.823,0,0,1-1.151,0,.789.789,0,0,1,0-1.13l1.052-1.034-1.054-1.033a.79.79,0,0,1-.048-1.13.827.827,0,0,1,1.152-.047c.016.014.032.03.047.046L716,349.052l1.054-1.034a.826.826,0,0,1,1.151.047.788.788,0,0,1,0,1.085l-1.052,1.033,1.053,1.034a.789.789,0,0,1,0,1.13.823.823,0,0,1-1.151,0h0Z" transform="translate(-701.334 -333.382)" fill="#fdc641"/>
    </g>
  </g>
</svg>
