<svg id="mobile-25x25" xmlns="http://www.w3.org/2000/svg" width="25" height="25" viewBox="0 0 25 25">
  <path id="Call" d="M20.209,15.474a2.849,2.849,0,0,0-2.092.55c-.6.351-1.748,1.28-2.4,1.042a14.915,14.915,0,0,1-7.891-7.7c-.241-.67.684-1.823,1.032-2.433A2.919,2.919,0,0,0,9.4,4.827,17.131,17.131,0,0,0,6.487.769,2.391,2.391,0,0,0,5.027,0C3.15-.079,1.054,2.425.687,3.024-.234,4.3-.229,6,.7,8.062,2.946,13.6,11.434,21.952,16.991,24.28A6.714,6.714,0,0,0,19.8,25a3.648,3.648,0,0,0,2.189-.686c.476-.274,3.083-2.474,3.014-4.4a2.426,2.426,0,0,0-.76-1.458c-.7-.726-3.276-2.822-4.03-2.981" fill="#7398fd"/>
</svg>
