<svg id="Notification" xmlns="http://www.w3.org/2000/svg" width="19" height="22" viewBox="0 0 19 22">
  <path id="Notification-2" data-name="Notification" d="M8.992,21.973a3.92,3.92,0,0,1-2.6-1.437.769.769,0,0,1,1.2-.956,2.374,2.374,0,0,0,1.58.869,2.419,2.419,0,0,0,1.762-.49,2.121,2.121,0,0,0,.4-.382.774.774,0,0,1,1.083-.117.765.765,0,0,1,.118,1.079,3.651,3.651,0,0,1-.667.642,3.954,3.954,0,0,1-2.874.793ZM4.485,17.431a5.511,5.511,0,0,1-3.449-1.676A4.422,4.422,0,0,1,0,12.828v-.261a4.456,4.456,0,0,1,.746-2.249l.074-.1a4.221,4.221,0,0,0,1.038-2l-.017.067,0-.588.013-.655c.01-.288.026-.548.047-.795A6.552,6.552,0,0,1,4.4,1.79,8.048,8.048,0,0,1,9.46,0h.08A8.057,8.057,0,0,1,14.6,1.789a6.6,6.6,0,0,1,2.5,4.465c.019.218.028.417.031.712v.741c0,.121,0,.229.005.339l.01.216.05.206a4.264,4.264,0,0,0,.812,1.574l.168.2.069.087A4.4,4.4,0,0,1,19,12.6v.444a4.429,4.429,0,0,1-1.079,2.746,5.382,5.382,0,0,1-3.4,1.635,47.272,47.272,0,0,1-5.021.268A47.23,47.23,0,0,1,4.485,17.431ZM2,11.22H2l-.087.142a2.92,2.92,0,0,0-.35,1.033l-.019.21v.241a2.893,2.893,0,0,0,.643,1.887A3.928,3.928,0,0,0,4.64,15.9a45.928,45.928,0,0,0,4.853.258,46.025,46.025,0,0,0,4.869-.259,3.863,3.863,0,0,0,2.411-1.134,2.9,2.9,0,0,0,.685-1.951v-.179a2.811,2.811,0,0,0-.486-1.455l.017.028-.154-.178a5.8,5.8,0,0,1-1.133-2.2l-.072-.3-.014-.1c-.012-.161-.018-.293-.021-.441l0-.995c0-.25-.009-.42-.024-.6-.261-2.68-2.965-4.86-6.029-4.86H9.46c-3.066,0-5.766,2.177-6.018,4.853-.012.134-.022.281-.032.464l-.017.514L3.385,8.376l-.016.156A5.752,5.752,0,0,1,2,11.211H2Z" transform="translate(0)" fill="#6a8596"/>
</svg>
