<svg id="Notification" xmlns="http://www.w3.org/2000/svg" width="19" height="22" viewBox="0 0 19 22">
  <path id="Fill_1" data-name="Fill 1" d="M18.184,10.65A4.26,4.26,0,0,1,17,7.505V7.034A6.075,6.075,0,0,0,15.66,2.9,7.906,7.906,0,0,0,9.549,0h-.1A7.942,7.942,0,0,0,3.439,2.775,6.162,6.162,0,0,0,2,7.034v.472A4.166,4.166,0,0,1,.816,10.65,3.684,3.684,0,0,0,0,13.2a3.956,3.956,0,0,0,.965,2.626,5.089,5.089,0,0,0,3.241,1.56,47.108,47.108,0,0,0,5.294.272c1.781,0,3.537-.125,5.294-.272a5.089,5.089,0,0,0,3.24-1.56A3.961,3.961,0,0,0,19,13.2a3.684,3.684,0,0,0-.816-2.551" transform="translate(0 0)" fill="#A0AEB8"/>
  <path id="Fill_4" data-name="Fill 4" d="M5.347.087a27.73,27.73,0,0,0-4.383,0C.5.194,0,.442,0,.988A1.679,1.679,0,0,0,.754,2.259h0a3.938,3.938,0,0,0,1.857.793,4.156,4.156,0,0,0,1.092,0A3.939,3.939,0,0,0,5.558,2.26h0A1.679,1.679,0,0,0,6.31.988c0-.546-.5-.794-.964-.9" transform="translate(6.329 18.911)" fill="#A0AEB8" opacity="0.4"/>
</svg>
