<svg id="sortir-cercle-20x20" xmlns="http://www.w3.org/2000/svg" width="20" height="20" viewBox="0 0 20 20">
  <path id="Logout" d="M4.348,20A4.4,4.4,0,0,1,0,15.56V4.45A4.408,4.408,0,0,1,4.358,0H9.136a4.4,4.4,0,0,1,4.339,4.44V9.23H7.6a.77.77,0,0,0,0,1.54h5.876v4.78A4.408,4.408,0,0,1,9.117,20Zm11.572-6.549a.8.8,0,0,1,0-1.09l1.54-1.59H13.475V9.23h3.985l-1.54-1.59a.8.8,0,0,1,0-1.09.716.716,0,0,1,1.049-.01l2.811,2.91A.782.782,0,0,1,20,10a.755.755,0,0,1-.221.54l-2.811,2.911a.714.714,0,0,1-1.049,0Z" fill="#6a8596"/>
</svg>
