<svg id="compte-premium-38x38" xmlns="http://www.w3.org/2000/svg" width="38" height="38" viewBox="0 0 38 38">
  <rect id="_1_DYJ-RwhiMwkgNr9MMoCQsQ-2" data-name="1*DYJ-RwhiMwkgNr9MMoCQsQ-2" width="38" height="38" rx="19" fill="#e0e6f8"/>
  <g id="Group_1053" data-name="Group 1053" transform="translate(12.185 10.105)">
    <g id="Group_909" data-name="Group 909" transform="translate(-0.104 -0.367)">
      <path id="Union_6" data-name="Union 6" d="M.019,7.634A7.016,7.016,0,0,1,6.331.019,6.944,6.944,0,0,1,13.656,6.6a11.945,11.945,0,0,1-.418,3.74L15,13.385,10.813,9.36A4.879,4.879,0,0,0,11.377,6.7,4.63,4.63,0,0,0,6.494,2.309,4.678,4.678,0,0,0,2.287,7.386,4.631,4.631,0,0,0,7.17,11.774,4.393,4.393,0,0,0,8.6,11.42l3.919,1.2A52.56,52.56,0,0,1,7.758,20S.446,13.6.019,7.634Zm6.91,1.971A1.321,1.321,0,0,1,6.04,8,1.253,1.253,0,0,1,7.58,7.07a1.318,1.318,0,0,1,.889,1.607,1.267,1.267,0,0,1-1.213.974A1.207,1.207,0,0,1,6.929,9.606ZM5.3,6.093a.718.718,0,0,1-.612-.8.7.7,0,0,1,.767-.639.717.717,0,0,1,.611.8.689.689,0,0,1-.766.639Z" transform="translate(-0.081 0.262)" fill="#6784da" stroke="rgba(0,0,0,0)" stroke-miterlimit="10" stroke-width="1"/>
    </g>
  </g>
</svg>
