<svg id="revenir-au-point-20x20" xmlns="http://www.w3.org/2000/svg" width="20" height="20" viewBox="0 0 20 20">
  <path id="icons8-hunt" d="M9.893-.032a.9.9,0,0,0-.1.024.769.769,0,0,0-.6.767v.815A8.432,8.432,0,0,0,1.572,9.2H.684a.768.768,0,1,0,.072,1.535h.815A8.432,8.432,0,0,0,9.2,18.361v.815a.767.767,0,1,0,1.535,0v-.815a8.434,8.434,0,0,0,7.626-7.626h.815a.767.767,0,1,0,0-1.535h-.815a8.434,8.434,0,0,0-7.626-7.626V.759a.768.768,0,0,0-.839-.791Zm.839,3.118A6.906,6.906,0,0,1,16.848,9.2H15.96a.771.771,0,1,0,.144,1.535h.743a6.906,6.906,0,0,1-6.115,6.115v-.743a.768.768,0,0,0-.839-.791.9.9,0,0,0-.1.024.769.769,0,0,0-.6.767v.719a6.885,6.885,0,0,1-6.115-6.091h.743a.767.767,0,1,0,0-1.535H3.082A6.885,6.885,0,0,1,9.2,3.109v.719a.767.767,0,1,0,1.535,0ZM9.965,6.9a3.07,3.07,0,1,0,3.07,3.07A3.068,3.068,0,0,0,9.965,6.9Z" transform="translate(0.048 0.036)" fill="#1e2d60"/>
</svg>
