<svg id="selection-26x26" xmlns="http://www.w3.org/2000/svg" width="26" height="26" viewBox="0 0 26 26">
  <path id="Path_2366" data-name="Path 2366" d="M712.278,399.5H700.722a7.23,7.23,0,0,1-7.222-7.222V380.722a7.23,7.23,0,0,1,7.222-7.222h11.556a7.23,7.23,0,0,1,7.222,7.222v11.556A7.23,7.23,0,0,1,712.278,399.5Zm-11.556-25.037a6.267,6.267,0,0,0-6.259,6.259v11.556a6.267,6.267,0,0,0,6.259,6.259h11.556a6.267,6.267,0,0,0,6.259-6.259V380.722a6.267,6.267,0,0,0-6.259-6.259Z" transform="translate(-693.5 -373.5)" fill="#a0a4b7"/>
</svg>
