<svg xmlns="http://www.w3.org/2000/svg" width="27.001" height="27" viewBox="0 0 27.001 27">
  <g id="selection-26x26" transform="translate(0.5 0.5)">
    <path id="Subtraction_7" data-name="Subtraction 7" d="M232.778,5765H221.222a7.231,7.231,0,0,1-7.223-7.223v-11.556a7.23,7.23,0,0,1,7.223-7.221h11.556a7.23,7.23,0,0,1,7.223,7.221v11.556A7.231,7.231,0,0,1,232.778,5765Zm-11.528-13.112a1.258,1.258,0,0,0-.884.358,1.2,1.2,0,0,0,0,1.729l3.75,3.667a1.268,1.268,0,0,0,1.768,0l8.749-8.555a1.2,1.2,0,0,0,0-1.728,1.265,1.265,0,0,0-1.767,0l-7.866,7.69-2.866-2.8A1.258,1.258,0,0,0,221.25,5751.888Z" transform="translate(-214 -5739)" fill="#40cdde" stroke="rgba(0,0,0,0)" stroke-miterlimit="10" stroke-width="1"/>
  </g>
</svg>
