<svg id="envoye-13x13" xmlns="http://www.w3.org/2000/svg" width="13" height="13" viewBox="0 0 13 13">
  <path id="Send" d="M12.633.378A1.257,1.257,0,0,0,11.378.051L.915,3.094a1.247,1.247,0,0,0-.9.989A1.465,1.465,0,0,0,.667,5.449L3.939,7.46a.848.848,0,0,0,1.046-.126l3.746-3.77a.477.477,0,0,1,.689,0,.5.5,0,0,1,0,.694L5.668,8.029a.86.86,0,0,0-.126,1.052l2,3.3A1.242,1.242,0,0,0,8.621,13a1.351,1.351,0,0,0,.163-.007,1.267,1.267,0,0,0,1.06-.9l3.1-10.449A1.277,1.277,0,0,0,12.633.378" fill="#22d39a"/>
</svg>
