<svg id="senvoyer-message-20x20" xmlns="http://www.w3.org/2000/svg" width="20" height="20" viewBox="0 0 20 20">
  <path id="Send" d="M13.256,20a1.928,1.928,0,0,1-1.587-.817l-.09-.137-3.995-6.62L.942,8.339A1.983,1.983,0,0,1,1.269,4.8l.155-.051L17.481.08A2,2,0,0,1,18.037,0a1.979,1.979,0,0,1,1.916,2.4l-.037.144L15.152,18.587A1.966,1.966,0,0,1,13.256,20Zm.7-14.747a.762.762,0,0,1,.455.149l.087.074a.774.774,0,0,1,.078,1l-.074.087L9.113,11.986,12.9,18.251a.421.421,0,0,0,.367.21.428.428,0,0,0,.384-.234l.031-.078L18.441,2.108a.439.439,0,0,0-.068-.392.433.433,0,0,0-.345-.176l-.044,0-.075.015L1.853,6.229a.43.43,0,0,0-.3.32.443.443,0,0,0,.129.428l.067.051,6.281,3.866L13.408,5.48A.766.766,0,0,1,13.955,5.253Z" fill="#40cdde"/>
</svg>
