<svg id="calendrier-20x22" xmlns="http://www.w3.org/2000/svg" width="20" height="22" viewBox="0 0 20 22">
  <path id="Calendar" d="M5.663,22a5.748,5.748,0,0,1-4.139-1.489A5.608,5.608,0,0,1,0,16.395V7.134A5.471,5.471,0,0,1,1.524,3.08,5.565,5.565,0,0,1,5.093,1.635V.767a.769.769,0,0,1,1.531-.1l.007.1v.848h6.747V.767a.77.77,0,0,1,1.532-.1l.007.1v.868a5.529,5.529,0,0,1,3.61,1.484A5.472,5.472,0,0,1,20,7.134v9.338a5.487,5.487,0,0,1-1.522,4.061A5.8,5.8,0,0,1,14.337,22ZM1.538,16.395c0,2.626,1.465,4.071,4.125,4.071h8.674c2.659,0,4.124-1.418,4.124-3.994V9.111H1.538ZM18.461,7.577V7.132A3.948,3.948,0,0,0,17.437,4.2a3.905,3.905,0,0,0-2.52-1.029v.962a.77.77,0,0,1-1.532.1l-.007-.1V3.15H6.631v.985a.769.769,0,0,1-1.531.1l-.007-.1V3.173A3.572,3.572,0,0,0,1.538,7.134v.443Zm-4.674,8.741a.767.767,0,0,1,.665-.76l.113-.007a.767.767,0,0,1,.1,1.528l-.1.007A.77.77,0,0,1,13.787,16.317Zm-4.552,0a.768.768,0,0,1,.665-.76l.114-.007a.767.767,0,0,1,.1,1.528l-.1.007A.771.771,0,0,1,9.235,16.317Zm-4.56,0a.767.767,0,0,1,.665-.76l.113-.007a.767.767,0,0,1,.105,1.528l-.114.007A.768.768,0,0,1,4.675,16.317Zm9.112-3.977a.767.767,0,0,1,.665-.76l.113-.007a.767.767,0,0,1,.1,1.528l-.1.007A.77.77,0,0,1,13.787,12.34Zm-4.552,0a.768.768,0,0,1,.665-.76l.114-.007a.767.767,0,0,1,.1,1.528l-.1.007A.771.771,0,0,1,9.235,12.34Zm-4.56,0a.767.767,0,0,1,.665-.76l.113-.007A.767.767,0,0,1,5.558,13.1l-.114.007A.768.768,0,0,1,4.675,12.34Z" fill="#6a8596"/>
</svg>
