<svg id="carte-contour-20x20" xmlns="http://www.w3.org/2000/svg" width="21.999" height="21.993" viewBox="0 0 21.999 21.993">
  <path id="Path_2364" data-name="Path 2364" d="M737.768,380.608,735,379.487a5.577,5.577,0,0,0-3.1-.322h-.023l-5.784,1.2-2.471-1.027h-.007a3.579,3.579,0,0,0-4.909,3.3v12.516a4.707,4.707,0,0,0,2.946,4.373l2.764,1.129a5.579,5.579,0,0,0,2.1.411h0a5.532,5.532,0,0,0,.99-.089l5.8-1.21L735.8,400.8h.007a3.565,3.565,0,0,0,4.909-3.3V384.985A4.707,4.707,0,0,0,737.768,380.608ZM722.3,397.942a2.994,2.994,0,0,1-1.87-2.785V382.64a1.854,1.854,0,0,1,1.841-1.85h0a1.856,1.856,0,0,1,.7.139l2.2.916V399.1c-.036-.013-.074-.021-.11-.035Zm4.9,1.344c-.123.022-.248.03-.372.04V381.972l5.391-1.118a3.734,3.734,0,0,1,.482-.052v17.335Zm11.79-1.793a1.849,1.849,0,0,1-2.541,1.712l-2.1-.872V381.075h0l2.769,1.124a3,3,0,0,1,1.87,2.785Z" transform="translate(-718.715 -379.076)" fill="#6a8596"/>
</svg>
