<svg id="messagerie-22x18" xmlns="http://www.w3.org/2000/svg" width="22" height="22" viewBox="0 0 22 22">
 <!--  <g id="Iconly_Bulk_Chat" data-name="Iconly/Bulk/Chat" transform="translate(-2 -2)">
    <g id="Chat" transform="translate(2 2)"> -->
      <path id="Fill_1" data-name="Fill 1" d="M11.022,0A11.008,11.008,0,0,0,0,11.017a11.647,11.647,0,0,0,1.485,5.5,1.153,1.153,0,0,1,.077.991L.825,19.973a.687.687,0,0,0,.9.859l2.222-.661a1.873,1.873,0,0,1,1.64.4A11,11,0,1,0,11.022,0" fill="#40cdde" opacity="0.4"/>
      <path id="Combined_Shape" data-name="Combined Shape" d="M10.143,1.41A1.408,1.408,0,1,1,11.55,2.821,1.4,1.4,0,0,1,10.143,1.41ZM5.072,1.4A1.408,1.408,0,1,1,6.48,2.821,1.422,1.422,0,0,1,5.072,1.4ZM0,1.41a1.408,1.408,0,1,1,2.816,0A1.42,1.42,0,0,1,1.408,2.821,1.419,1.419,0,0,1,0,1.41Z" transform="translate(4.499 9.617)" fill="#40cdde"/>
    <!-- </g> -->
  <!-- </g> -->
</svg>
