<svg xmlns="http://www.w3.org/2000/svg" width="40" height="28" viewBox="0 0 40 28">
  <g id="Group_1650" data-name="Group 1650" transform="translate(-168 -255)">
    <g id="Group_1360" data-name="Group 1360" transform="translate(-94 169)">
      <g id="Group_1358" data-name="Group 1358" transform="translate(262 86)">
        <path id="Fill_1" data-name="Fill 1" d="M281.916,114H269.873c-4.709,0-7.873-3.328-7.873-8.282V94.284c0-4.955,3.164-8.284,7.873-8.284h12.044c4.709,0,7.873,3.329,7.873,8.284v11.435c0,4.953-3.164,8.281-7.874,8.281" transform="translate(-262 -86)" fill="#aa87e5" opacity="0.4" style="isolation: isolate"/>
        <path id="Combined_Shape" data-name="Combined Shape" d="M268.744,109.448a5.94,5.94,0,0,1-3.09-.792,1.045,1.045,0,0,1-.322-1.442.989.989,0,0,1,.088-.119c.667-.809,1.326-1.621,1.987-2.44,1.266-1.562,2.118-2.021,3.068-1.623a8.028,8.028,0,0,1,1.168.674,3.985,3.985,0,0,0,4.47.619,7.974,7.974,0,0,0,2.779-3.063c.275-.441.537-.882.84-1.278a2.249,2.249,0,0,1,3-.785,15.114,15.114,0,0,1,2.643,2.2,3.117,3.117,0,0,1,.723,1.079,5.062,5.062,0,0,1-.284,3.77,5.159,5.159,0,0,1-3.19,2.9,6.5,6.5,0,0,1-1.987.294Zm-2.009-15.73a3.528,3.528,0,1,1,3.532,3.528A3.528,3.528,0,0,1,266.735,93.718Z" transform="translate(-261.272 -84.633)" fill="#aa87e5"/>
      </g>
      <g id="Group_1359" data-name="Group 1359" transform="translate(289.938 88.527)">
        <path id="Path_2441" data-name="Path 2441" d="M289.914,90.417l-7.366-2.637a10.986,10.986,0,0,1,1.537,5.779v8.564c.183-.14.365-.288.555-.406a1.821,1.821,0,0,1,2.467.225,11.886,11.886,0,0,1,1.384,2.343,2.4,2.4,0,0,1,.248.993,3.963,3.963,0,0,1-1.245,2.713,4.162,4.162,0,0,1-3.193,1.289,5.253,5.253,0,0,1-.957-.142A9.765,9.765,0,0,1,282.1,111.4l.041.015c3.618,1.3,6.972-.33,8.346-4.045l3.173-8.577C295.038,95.08,293.531,91.714,289.914,90.417Z" transform="translate(-282.104 -87.78)" fill="#aa87e5" opacity="0.4" style="isolation: isolate"/>
        <path id="Path_2442" data-name="Path 2442" d="M282.979,105.412a5.175,5.175,0,0,0,.957.145,4.128,4.128,0,0,0,3.193-1.31,4.055,4.055,0,0,0,1.245-2.757,2.471,2.471,0,0,0-.248-1.009,12.126,12.126,0,0,0-1.384-2.381,1.8,1.8,0,0,0-2.467-.229c-.19.121-.372.271-.555.413v2.892A11.965,11.965,0,0,1,282.979,105.412Z" transform="translate(-281.737 -84.099)" fill="#aa87e5"/>
      </g>
    </g>
  </g>
</svg>
