<svg id="Edit" xmlns="http://www.w3.org/2000/svg" width="19" height="22" viewBox="0 0 19 22">
  <path id="Fill_3" data-name="Fill 3" d="M8.865.082l6.544,5.362a.385.385,0,0,1,.062.528L7.712,16.223a2.535,2.535,0,0,1-1.977,1L1.5,17.281a.484.484,0,0,1-.475-.383L.063,12.654A2.657,2.657,0,0,1,.55,10.446l7.8-10.3A.36.36,0,0,1,8.865.082" transform="translate(0 4.719)" fill="#34d9b8"/>
  <path id="Fill_5" data-name="Fill 5" d="M8.462,6.968,7.2,8.565a.358.358,0,0,1-.513.059C5.153,7.366,1.226,4.136.136,3.241a.383.383,0,0,1-.053-.531L1.3,1.177A3.091,3.091,0,0,1,5.882.86L7.666,2.3A3.776,3.776,0,0,1,9.052,4.456a2.99,2.99,0,0,1-.59,2.512" transform="translate(9.877 0)" fill="#34d9b8" opacity="0.4"/>
</svg>
