<svg xmlns="http://www.w3.org/2000/svg" width="76.915" height="65.007" viewBox="0 0 76.915 65.007">
  <g id="Group_1659" data-name="Group 1659" transform="translate(-666.506 -325.87)">
    <g id="Group_46" data-name="Group 46">
      <g id="Fill_5" data-name="Fill 5">
        <path id="Path_2463" data-name="Path 2463" d="M684.315,390.877H684.2a8.33,8.33,0,0,1-2.683-.588,8.178,8.178,0,0,1-4.576-10.622l.023-.057,21.392-37.138a8.19,8.19,0,0,1,3.215-3.174,8.321,8.321,0,0,1,11.24,3.2l21.259,36.854a8.252,8.252,0,0,1,.724,2.92,8.1,8.1,0,0,1-2.119,5.913,8.238,8.238,0,0,1-5.719,2.687H684.522Z" fill="#ffffff"/>
      </g>
      <g id="Combined_Shape" data-name="Combined Shape">
        <path id="Path_2464" data-name="Path 2464" d="M703.024,376.7a2.557,2.557,0,1,1,2.581,2.533h-.024A2.558,2.558,0,0,1,703.024,376.7Zm0-9.909V358.6a2.557,2.557,0,0,1,5.113,0v8.189a2.557,2.557,0,0,1-5.113,0Z" fill="#F9547B"/>
      </g>
    </g>
    <g id="Group_49" data-name="Group 49">
      <g id="Group_47" data-name="Group 47">
        <g id="Stroke_3" data-name="Stroke 3">
          <path id="Path_2465" data-name="Path 2465" d="M677.189,354.886a2,2,0,0,1-2-1.881A19.947,19.947,0,0,1,685.9,334.46a2,2,0,1,1,1.789,3.577,15.952,15.952,0,0,0-8.5,14.729,2,2,0,0,1-1.876,2.116C677.27,354.885,677.229,354.886,677.189,354.886Z" fill="#ffffff"/>
        </g>
        <g id="Stroke_5" data-name="Stroke 5">
          <path id="Path_2466" data-name="Path 2466" d="M668.554,356.678a2,2,0,0,1-1.995-1.88,30.918,30.918,0,0,1,16.578-28.715,2,2,0,1,1,1.79,3.577,26.922,26.922,0,0,0-14.375,24.9,2,2,0,0,1-1.877,2.116C668.635,356.677,668.594,356.678,668.554,356.678Z" fill="#ffffff"/>
        </g>
      </g>
      <g id="Group_48" data-name="Group 48">
        <g id="Stroke_3-2" data-name="Stroke 3-2">
          <path id="Path_2467" data-name="Path 2467" d="M732.739,354.886c-.04,0-.081,0-.121,0a2,2,0,0,1-1.877-2.116,15.942,15.942,0,0,0-8.5-14.728,2,2,0,0,1,1.789-3.579,19.941,19.941,0,0,1,10.707,18.546A2,2,0,0,1,732.739,354.886Z" fill="#ffffff"/>
        </g>
        <g id="Stroke_5-2" data-name="Stroke 5-2">
          <path id="Path_2468" data-name="Path 2468" d="M741.374,356.678l-.122,0a2,2,0,0,1-1.876-2.116A26.92,26.92,0,0,0,725,329.66a2,2,0,1,1,1.789-3.577A30.921,30.921,0,0,1,743.368,354.8,2,2,0,0,1,741.374,356.678Z" fill="#ffffff"/>
        </g>
      </g>
    </g>
  </g>
</svg>
