<svg id="informatique-18x16" xmlns="http://www.w3.org/2000/svg" width="18" height="15.999" viewBox="0 0 18 15.999">
  <path id="icons8-computer_support" d="M3,3A1.5,1.5,0,0,0,1.5,4.5V13A1.5,1.5,0,0,0,3,14.5H.75a.75.75,0,1,0,0,1.5H9.878l.7-.7a4.367,4.367,0,0,1,.186-2.3H3.75a.75.75,0,0,1-.75-.75v-7a.75.75,0,0,1,.75-.75h10.5a.75.75,0,0,1,.75.75V10a4.408,4.408,0,0,1,1.5.267V4.5A1.5,1.5,0,0,0,15,3Zm11.848,8.5a2.992,2.992,0,0,0-2.581,4.227L10.81,17.189a1.061,1.061,0,1,0,1.5,1.5l1.456-1.456a2.995,2.995,0,0,0,4.144-2.007,2.938,2.938,0,0,0,.063-1.123.479.479,0,0,0-.813-.262L16.5,14.5A1.061,1.061,0,0,1,15,13l.661-.661a.478.478,0,0,0-.264-.811A2.88,2.88,0,0,0,14.848,11.5Z" transform="translate(0 -3)" fill="#aa87e5"/>
</svg>
