<svg id="note-20x22" xmlns="http://www.w3.org/2000/svg" width="20" height="22" viewBox="0 0 20 22">
  <path id="Path" d="M14.657,0H5.344C1.967,0,0,1.958,0,5.313V16.676C0,20.086,1.967,22,5.344,22h9.312C18.089,22,20,20.086,20,16.676V5.313C20,1.958,18.089,0,14.657,0" fill="#f9547b" opacity="0.4"/>
  <path id="Combined_Shape" data-name="Combined Shape" d="M.133,11.33A.874.874,0,0,1,.967,10H9.678a.868.868,0,0,1,0,1.727H.967a.821.821,0,0,1-.109.007A.872.872,0,0,1,.133,11.33ZM.967,6.7a.859.859,0,1,1,0-1.718H9.678a.859.859,0,1,1,0,1.718Zm0-4.973A.862.862,0,0,1,.1.869.863.863,0,0,1,.967.011V0H4.288a.863.863,0,1,1,0,1.727Z" transform="translate(4.678 5.115)" fill="#f9547b"/>
</svg>
