<svg id="ajout-cercles-59x59" xmlns="http://www.w3.org/2000/svg" width="59" height="59" viewBox="0 0 59 59">
  <rect id="Rectangle_1648" data-name="Rectangle 1648" width="59" height="59" rx="29.5" fill="#40cdde"/>
  <path id="Union_10" data-name="Union 10" d="M0,14.918c0-2.447,3.353-3.06,7.278-3.06,3.946,0,7.278.634,7.278,3.083S11.2,18,7.278,18C3.332,18,0,17.366,0,14.918Zm16.473.475c.337-3.112-2.344-4.588-3.038-4.927a.053.053,0,0,1-.032-.054.041.041,0,0,1,.037-.028,18.052,18.052,0,0,1,3.711.319,3.157,3.157,0,0,1,2.438,1.467,2.126,2.126,0,0,1,0,1.878c-.526,1.123-2.224,1.484-2.884,1.578l-.029,0A.207.207,0,0,1,16.473,15.393Zm4.627-6.3V7.911H19.9a.912.912,0,0,1,0-1.823h1.2V4.911a.9.9,0,1,1,1.8,0V6.088h1.2a.912.912,0,0,1,0,1.823H22.9V9.088a.9.9,0,1,1-1.8,0ZM2.462,4.763A4.772,4.772,0,0,1,7.278,0a4.763,4.763,0,1,1,0,9.525A4.772,4.772,0,0,1,2.462,4.763ZM13.586,8.822a3.977,3.977,0,0,1-.554-.052.177.177,0,0,1-.122-.274,6.483,6.483,0,0,0-.1-7.439A.111.111,0,0,1,12.8.932.146.146,0,0,1,12.89.877,4.12,4.12,0,0,1,13.7.8a4.014,4.014,0,1,1,0,8.028Z" transform="translate(18 21)" fill="#fff" stroke="rgba(0,0,0,0)" stroke-miterlimit="10" stroke-width="1"/>
</svg>
