<svg xmlns="http://www.w3.org/2000/svg" width="48" height="48" viewBox="0 0 48 48">
  <g id="tous-20x19" transform="translate(-81 -210)">
    <g id="Group_934" data-name="Group 934">
      <g id="Group_931" data-name="Group 931" transform="translate(-1577 -3574)">
        <g id="Group_897" data-name="Group 897" transform="translate(1669 3784)">
          <path id="Path_2343" data-name="Path 2343" d="M24,0A24,24,0,1,1,0,24,24,24,0,0,1,24,0Z" transform="translate(-11)" fill="#d2d5df"/>
        </g>
      </g>
      <g id="tous-17x20" transform="translate(96.5 224)">
        <path id="Location" d="M8.5,20a1.358,1.358,0,0,1-.734-.247,21.513,21.513,0,0,1-5.54-5.141A10.384,10.384,0,0,1,0,8.318,8.168,8.168,0,0,1,2.5,2.434,8.53,8.53,0,0,1,8.493,0,8.423,8.423,0,0,1,17,8.318a10.39,10.39,0,0,1-2.23,6.294,21.92,21.92,0,0,1-5.541,5.141A1.319,1.319,0,0,1,8.5,20ZM8.493,5.777a2.8,2.8,0,0,0-2.8,2.8,2.712,2.712,0,0,0,.821,1.954,2.823,2.823,0,0,0,4.79-1.954,2.824,2.824,0,0,0-2.813-2.8Z" fill="#1e2d60"/>
      </g>
    </g>
  </g>
</svg>
