<svg id="Association-38x38" xmlns="http://www.w3.org/2000/svg" width="38" height="38" viewBox="0 0 38 38">
  <rect id="Rectangle_8" data-name="Rectangle 8" width="38" height="38" rx="19" fill="#7398fd" opacity="0.2"/>
  <g id="Iconly_Bulk_3_User" data-name="Iconly/Bulk/3 User" transform="translate(9 8)">
    <g id="_3_User" data-name="3 User" transform="translate(1 4)">
      <path id="Fill_1" data-name="Fill 1" d="M5.2,0C2.382,0,0,.493,0,2.4S2.4,4.778,5.2,4.778c2.823,0,5.2-.493,5.2-2.4S8.012,0,5.2,0" transform="translate(3.754 9.222)" fill="#7398fd"/>
      <path id="Fill_3" data-name="Fill 3" d="M3.444,7.409A3.569,3.569,0,0,0,6.888,3.7,3.568,3.568,0,0,0,3.444,0,3.568,3.568,0,0,0,0,3.7a3.569,3.569,0,0,0,3.444,3.7" transform="translate(5.514 0)" fill="#7398fd" opacity="0.4"/>
      <path id="Fill_6" data-name="Fill 6" d="M3.457,3.949A3.089,3.089,0,0,0,.656,0a2.752,2.752,0,0,0-.58.064A.11.11,0,0,0,.008.107.1.1,0,0,0,.022.2,5.327,5.327,0,0,1,.9,3.153,5.293,5.293,0,0,1,.09,5.989.141.141,0,0,0,.177,6.2a2.517,2.517,0,0,0,.4.041A2.907,2.907,0,0,0,3.457,3.949" transform="translate(12.979 0.618)" fill="#7398fd" opacity="0.4"/>
      <path id="Fill_8" data-name="Fill 8" d="M4.424,1.391A2.247,2.247,0,0,0,2.68.25,11.928,11.928,0,0,0,.027,0,.031.031,0,0,0,0,.024.041.041,0,0,0,.024.066,3.905,3.905,0,0,1,2.2,3.9a.154.154,0,0,0,.166.18c.472-.072,1.686-.353,2.062-1.227a1.788,1.788,0,0,0,0-1.461" transform="translate(13.42 8.074)" fill="#7398fd"/>
      <path id="Fill_11" data-name="Fill 11" d="M3.479.064A2.7,2.7,0,0,0,2.9,0,3.089,3.089,0,0,0,.1,3.949,2.906,2.906,0,0,0,2.982,6.243a2.6,2.6,0,0,0,.4-.041.141.141,0,0,0,.087-.214,5.3,5.3,0,0,1-.805-2.836A5.323,5.323,0,0,1,3.533.2a.1.1,0,0,0,.013-.1A.1.1,0,0,0,3.479.064" transform="translate(1.467 0.618)" fill="#7398fd" opacity="0.4"/>
      <path id="Fill_13" data-name="Fill 13" d="M1.9.25A2.246,2.246,0,0,0,.157,1.391a1.784,1.784,0,0,0,0,1.462c.377.873,1.59,1.154,2.062,1.226a.153.153,0,0,0,.165-.18A3.9,3.9,0,0,1,4.557.066.042.042,0,0,0,4.579.023.028.028,0,0,0,4.554,0,11.9,11.9,0,0,0,1.9.25" transform="translate(0 8.074)" fill="#7398fd"/>
    </g>
  </g>
</svg>
