<svg id="association-39x30" xmlns="http://www.w3.org/2000/svg" width="39" height="30" viewBox="0 0 39 30">
  <g id="_3_User" data-name="3 User">
    <path id="Fill_1" data-name="Fill 1" d="M11.276,0C5.16,0,0,1.057,0,5.137s5.194,5.1,11.276,5.1c6.116,0,11.276-1.057,11.276-5.137S17.359,0,11.276,0" transform="translate(8.133 19.762)" fill="#7398fd"/>
    <path id="Fill_3" data-name="Fill 3" d="M7.462,15.876a7.684,7.684,0,0,0,7.462-7.938A7.683,7.683,0,0,0,7.462,0,7.683,7.683,0,0,0,0,7.938a7.684,7.684,0,0,0,7.462,7.938" transform="translate(11.948 0)" fill="#7398fd" opacity="0.4"/>
    <path id="Fill_6" data-name="Fill 6" d="M7.49,8.461C8.562,4,5.42,0,1.42,0A6.025,6.025,0,0,0,.163.137.239.239,0,0,0,.017.23a.2.2,0,0,0,.03.206,11.325,11.325,0,0,1,1.892,6.32A11.25,11.25,0,0,1,.2,12.833a.3.3,0,0,0,.189.458,5.511,5.511,0,0,0,.857.088A6.285,6.285,0,0,0,7.49,8.461" transform="translate(28.12 1.325)" fill="#7398fd" opacity="0.4"/>
    <path id="Fill_8" data-name="Fill 8" d="M9.585,2.981C9.052,1.772,7.765.943,5.807.536A26.12,26.12,0,0,0,.058,0,.066.066,0,0,0,0,.051.087.087,0,0,0,.052.141C1.127.707,5.28,3.167,4.758,8.356a.331.331,0,0,0,.359.385c1.022-.155,3.652-.756,4.468-2.629a3.792,3.792,0,0,0,0-3.131" transform="translate(29.077 17.301)" fill="#7398fd"/>
    <path id="Fill_11" data-name="Fill 11" d="M7.538.137A5.9,5.9,0,0,0,6.281,0c-4,0-7.141,4-6.068,8.461A6.282,6.282,0,0,0,6.46,13.378a5.7,5.7,0,0,0,.857-.088.3.3,0,0,0,.189-.458A11.254,11.254,0,0,1,5.762,6.756,11.318,11.318,0,0,1,7.655.436.2.2,0,0,0,7.684.23.228.228,0,0,0,7.538.137" transform="translate(3.178 1.325)" fill="#7398fd" opacity="0.4"/>
    <path id="Fill_13" data-name="Fill 13" d="M4.115.535C2.158.942.873,1.771.339,2.98a3.784,3.784,0,0,0,0,3.132c.816,1.871,3.446,2.474,4.468,2.627a.329.329,0,0,0,.357-.385C4.642,3.167,8.8.707,9.873.141A.09.09,0,0,0,9.922.05.061.061,0,0,0,9.866,0a26.055,26.055,0,0,0-5.751.53" transform="translate(0 17.302)" fill="#7398fd"/>
  </g>
</svg>
