<svg id="cercles-38x38" xmlns="http://www.w3.org/2000/svg" width="38" height="38" viewBox="0 0 38 38">
  <rect id="Rectangle_1648" data-name="Rectangle 1648" width="38" height="38" rx="19" fill="#d9f5f9"/>
  <g id="_3_User" data-name="3 User" transform="translate(10.27 10.931)">
    <path id="Fill_1" data-name="Fill 1" d="M6.416,0C2.936,0,0,.569,0,2.763S2.955,5.507,6.416,5.507c3.48,0,6.416-.569,6.416-2.763S9.877,0,6.416,0" transform="translate(4.628 10.631)" fill="#40cdde"/>
    <path id="Fill_3" data-name="Fill 3" d="M4.246,8.54A4.243,4.243,0,0,0,8.491,4.27,4.246,4.246,0,1,0,0,4.27,4.243,4.243,0,0,0,4.246,8.54" transform="translate(6.798 0)" fill="#40cdde"/>
    <path id="Fill_11" data-name="Fill 11" d="M4.289.074A3.545,3.545,0,0,0,3.574,0,3.6,3.6,0,0,0,.121,4.552,3.542,3.542,0,0,0,3.676,7.2a3.426,3.426,0,0,0,.488-.047A.16.16,0,0,0,4.271,6.9,5.892,5.892,0,0,1,4.356.234.1.1,0,0,0,4.372.124a.131.131,0,0,0-.083-.05" transform="translate(1.808 0.713)" fill="#40cdde"/>
    <path id="Fill_13" data-name="Fill 13" d="M2.342.288A2.777,2.777,0,0,0,.193,1.6a1.935,1.935,0,0,0,0,1.685C.657,4.294,2.154,4.619,2.735,4.7a.182.182,0,0,0,.2-.207A4.488,4.488,0,0,1,5.617.076.048.048,0,0,0,5.645.027.034.034,0,0,0,5.614,0,15.651,15.651,0,0,0,2.342.288" transform="translate(0 9.307)" fill="#40cdde"/>
  </g>
</svg>
