<svg id="entreprise-33x30" xmlns="http://www.w3.org/2000/svg" width="33" height="30" viewBox="0 0 33 30">
  <path id="icons8-contact_us" data-name="icons8-contact us" d="M-56.52,300.138a3.174,3.174,0,0,0-3.216,3.126v26.873h16.082v-2.523a7.9,7.9,0,0,1,4.739-6.943,7.669,7.669,0,0,1-1.523-4.6,7.7,7.7,0,0,1,3.216-6.213v-6.6a3.174,3.174,0,0,0-3.216-3.126Zm3.218,8.125h3.216v3.126H-53.3Zm6.433,0h3.216v3.126h-3.218Zm-6.433,6.25h3.216v3.126H-53.3Zm6.433,0h3.216v3.126h-3.218Zm-6.433,6.25h3.216v3.126H-53.3Zm6.433,0h3.216v3.126h-3.218Z" transform="translate(59.736 -300.138)" fill="#7398fd"/>
  <g id="Iconly_Bulk_3_User" data-name="Iconly/Bulk/3 User" transform="translate(19.36 11.654)">
    <g id="_3_User" data-name="3 User" transform="translate(0 0)">
      <path id="Fill_1" data-name="Fill 1" d="M6.82,0C3.121,0,0,.646,0,3.141s3.141,3.12,6.82,3.12c3.7,0,6.82-.646,6.82-3.141S10.5,0,6.82,0" transform="translate(0 12.086)" fill="#7398fd"/>
      <path id="Fill_3" data-name="Fill 3" d="M4.587,9.173A4.587,4.587,0,1,0,0,4.587,4.571,4.571,0,0,0,4.587,9.173" transform="translate(2.307 0)" fill="#7398fd" opacity="0.4"/>
    </g>
  </g>
</svg>
