<svg id="professionnel-38x38" xmlns="http://www.w3.org/2000/svg" width="38" height="38" viewBox="0 0 38 38">
  <rect id="Rectangle_8" data-name="Rectangle 8" width="38" height="38" rx="19" fill="#e1e7ea"/>
  <g id="Group_1414" data-name="Group 1414" transform="translate(69.736 -289.138)">
    <path id="icons8-contact_us" data-name="icons8-contact us" d="M-58.021,300.138a1.693,1.693,0,0,0-1.715,1.667v14.332h8.577v-1.346a4.214,4.214,0,0,1,2.527-3.7,4.09,4.09,0,0,1-.812-2.451,4.105,4.105,0,0,1,1.715-3.314v-3.519a1.693,1.693,0,0,0-1.715-1.667Zm1.716,4.333h1.715v1.667H-56.3Zm3.431,0h1.715v1.667h-1.716ZM-56.3,307.8h1.715v1.667H-56.3Zm3.431,0h1.715v1.667h-1.716Zm-3.431,3.333h1.715V312.8H-56.3Zm3.431,0h1.715V312.8h-1.716Z" transform="translate(0)" fill="#6a8596"/>
    <g id="Iconly_Bulk_3_User" data-name="Iconly/Bulk/3 User" transform="translate(-49.011 306.353)">
      <g id="_3_User" data-name="3 User" transform="translate(0 0)">
        <path id="Fill_1" data-name="Fill 1" d="M3.637,0C1.665,0,0,.345,0,1.675S1.675,3.339,3.637,3.339s3.637-.345,3.637-1.675S5.6,0,3.637,0" transform="translate(0 6.446)" fill="#6a8596"/>
        <path id="Fill_3" data-name="Fill 3" d="M2.446,4.892A2.446,2.446,0,1,0,0,2.446,2.438,2.438,0,0,0,2.446,4.892" transform="translate(1.23 0)" fill="#6a8596" opacity="0.4"/>
      </g>
    </g>
  </g>
</svg>
