<svg id="Component_134_19" data-name="Component 134 – 19" xmlns="http://www.w3.org/2000/svg" width="28.505" height="31.06" viewBox="0 0 28.505 31.06">
  <path id="Path_2477" data-name="Path 2477" d="M660.77,359.01a6.76,6.76,0,0,0-4.22-3.94,6.655,6.655,0,0,0-2.08-.33h-.05a6.959,6.959,0,0,0-4.27,1.46,2.894,2.894,0,0,0-.29-.19l-.04-.02c-.05-.03-.1-.07-.17-.12-.1-.07-.2-.14-.32-.21l-.42-.19a3.651,3.651,0,0,0-.71-.29.36.36,0,0,0-.1-.07h-.06a7.262,7.262,0,0,0-2.06-.37h-.12a5.863,5.863,0,0,0-.94.07h-.14a4.993,4.993,0,0,0-1,.23,6.812,6.812,0,0,0-4.24,3.97,8.639,8.639,0,0,0-.16,5.91c.07.19.14.38.22.56a10.891,10.891,0,0,1,2.57-.3,11.313,11.313,0,0,1,11.03,8.83,42.721,42.721,0,0,0,4.36-3.69,14.391,14.391,0,0,0,3.38-5.4A8.881,8.881,0,0,0,660.77,359.01Zm-2.43,2.95a.86.86,0,0,1-1.53.53.944.944,0,0,1-.21-.7v-.03a1.914,1.914,0,0,0-1.2-1.77.9.9,0,0,1,.57-1.71,3.716,3.716,0,0,1,2.37,3.55Z" transform="translate(-632.86 -354.74)" fill="#ef88b9"/>
  <path id="Path_2478" data-name="Path 2478" d="M642.17,367.18a8.472,8.472,0,0,0-1.68.16,9.307,9.307,0,1,0,10.99,9.15,9.708,9.708,0,0,0-.08-1.21A9.325,9.325,0,0,0,642.17,367.18Zm3.96,10.29-2.99-.01.01,2.99a.808.808,0,0,1-.78.78.781.781,0,0,1-.78-.78v-2.99H638.6a.772.772,0,0,1-.78-.77.781.781,0,0,1,.78-.78h2.99l-.01-2.99a.806.806,0,0,1,.78-.77.773.773,0,0,1,.78.77v2.99h2.99a.781.781,0,0,1,.78.78A.815.815,0,0,1,646.13,377.47Z" transform="translate(-632.86 -354.74)" fill="#ef88b9"/>
</svg>
