<svg xmlns="http://www.w3.org/2000/svg" width="48" height="48" viewBox="0 0 48 48">
  <g id="amis-48x48" transform="translate(-81 -210)">
    <path id="Path_2343" data-name="Path 2343" d="M24,0A24,24,0,1,1,0,24,24,24,0,0,1,24,0Z" transform="translate(81 210)" fill="#e0e6f8"/>
    <g id="Group_932" data-name="Group 932" transform="translate(0 5)">
      <path id="icons8-diamond_care" d="M56.526,17.925a1.157,1.157,0,0,1-.379.9,1.035,1.035,0,0,1-.759.3,1.14,1.14,0,0,1-1.062-.75l-3.035-8.25a1.082,1.082,0,0,1,.152-1.012,1.05,1.05,0,0,1,.721-.45c.076,0,.152-.037.228-.037h3.035L64.3,7.987l3.187.638a.375.375,0,0,0,.266-.638l-4.743-4.65a1.039,1.039,0,0,0-.8-.338H56.906a.356.356,0,0,0-.379.375V5.25a1.111,1.111,0,0,1-1.138,1.125H50.721a1.162,1.162,0,0,1-1.062-.713l-.341-.9a.35.35,0,0,0-.607-.113L44.347,8.963a1.14,1.14,0,0,0-.076,1.537L55.654,23.625a1.1,1.1,0,0,0,.873.375,1.242,1.242,0,0,0,.873-.375l10.51-12.112a.386.386,0,0,0-.3-.637H56.526Zm-9.106-7.05A1.125,1.125,0,1,1,48.558,9.75,1.111,1.111,0,0,1,47.42,10.875Z" transform="translate(48.991 216)" fill="#6784da"/>
    </g>
  </g>
</svg>
