<svg id="Component_136_1" data-name="Component 136 – 1" xmlns="http://www.w3.org/2000/svg" width="29.744" height="31.072" viewBox="0 0 29.744 31.072">
  <path id="Path_2474" data-name="Path 2474" d="M773.22,362.7a.4.4,0,0,0-.26-.1H761.88v7a11.131,11.131,0,0,1,2.06,4.38l9.32-10.74A.381.381,0,0,0,773.22,362.7Z" transform="translate(-743.61 -354.728)" fill="#6784da"/>
  <path id="Path_2475" data-name="Path 2475" d="M752.2,365.2c.24-.01.48-.02.72-.02a11.14,11.14,0,0,1,5.47,1.42l-1.75-4.75a1.079,1.079,0,0,1,.16-1.01,1.031,1.031,0,0,1,.72-.45c.07,0,.15-.04.22-.04h3.04l8.87-.64,3.19.64a.369.369,0,0,0,.37-.37.427.427,0,0,0-.1-.27l-4.75-4.65a1.028,1.028,0,0,0-.8-.33h-5.3a.345.345,0,0,0-.38.33v1.92a1.1,1.1,0,0,1-1.1,1.12h-4.71a1.154,1.154,0,0,1-1.06-.71l-.34-.9a.352.352,0,0,0-.44-.23.381.381,0,0,0-.17.12l-4.36,4.31a1.15,1.15,0,0,0-.08,1.54Zm.6-4.85a1.125,1.125,0,0,1,1.11,1.13,1.1,1.1,0,0,1-1.1,1.12h-.04a1.114,1.114,0,0,1-1.11-1.14A1.133,1.133,0,0,1,752.8,360.35Z" transform="translate(-743.61 -354.728)" fill="#6784da"/>
  <path id="Path_2476" data-name="Path 2476" d="M760.22,370.72a1.137,1.137,0,0,1-.54-.62v-.01a9.315,9.315,0,0,0-5.71-2.85,9.114,9.114,0,0,0-1.05-.06,9.31,9.31,0,1,0,9.31,9.31,7.33,7.33,0,0,0-.04-.81A9.23,9.23,0,0,0,760.22,370.72Zm-3.34,6.75-2.99-.01.01,2.99a.808.808,0,0,1-.78.78.781.781,0,0,1-.78-.78v-2.99h-2.99a.772.772,0,0,1-.78-.77.781.781,0,0,1,.78-.78h2.99l-.01-2.99a.806.806,0,0,1,.78-.77.773.773,0,0,1,.78.77v2.99h2.99a.781.781,0,0,1,.78.78A.808.808,0,0,1,756.88,377.47Z" transform="translate(-743.61 -354.728)" fill="#6784da"/>
</svg>
