<svg id="informations-38x38" xmlns="http://www.w3.org/2000/svg" width="38" height="38" viewBox="0 0 38 38">
  <rect id="Rectangle_1804" data-name="Rectangle 1804" width="38" height="38" rx="19" fill="#e1e7ea"/>
  <g id="Profile" transform="translate(12 10)">
    <path id="Fill_1" data-name="Fill 1" d="M7,0C3.225,0,0,.578,0,2.89S3.2,5.8,7,5.8c3.775,0,7-.577,7-2.89S10.8,0,7,0" transform="translate(0 11.199)" fill="#6a8596"/>
    <path id="Fill_4" data-name="Fill 4" d="M4.632,9A4.55,4.55,0,0,0,9.264,4.5,4.55,4.55,0,0,0,4.632,0,4.551,4.551,0,0,0,0,4.5,4.551,4.551,0,0,0,4.632,9" transform="translate(2.368 0)" fill="#6a8596" opacity="0.4"/>
  </g>
</svg>
