<svg id="collectivité-institutionnel-38x38" xmlns="http://www.w3.org/2000/svg" width="38" height="38" viewBox="0 0 38 38">
  <rect id="Rectangle_8" data-name="Rectangle 8" width="38" height="38" rx="19" fill="#7398fd" opacity="0.2"/>
  <path id="icons8-museum" d="M10,3a.621.621,0,0,0-.2.036h0l-.014.006-.036.014L3.812,5.5h0a.911.911,0,0,0,.341,1.761H15.846A.911.911,0,0,0,16.187,5.5h0l-.007,0L10.244,3.051l-.02-.01-.008,0-.011,0h0A.621.621,0,0,0,10,3Zm0,1.826a.609.609,0,1,1-.615.609A.612.612,0,0,1,10,4.826ZM4.461,8.478v4.87H3.846a.609.609,0,1,0,0,1.217H16.154a.609.609,0,1,0,0-1.217h-.615V8.478H14.308v4.87H13.077V8.478H11.846v4.87H10.615V8.478H9.385v4.87H8.154V8.478H6.923v4.87H5.692V8.478Zm-1.846,7.3a.609.609,0,1,0,0,1.217H17.384a.609.609,0,1,0,0-1.217Z" transform="translate(9 9)" fill="#7398fd"/>
</svg>
