<svg id="instituition-35x30" xmlns="http://www.w3.org/2000/svg" width="35" height="30" viewBox="0 0 35 30">
  <path id="icons8-museum" d="M-9.945,302.974a1.363,1.363,0,0,0-.436.077h0l-.031.013-.079.03-12.959,5.239h0a1.942,1.942,0,0,0-1.141,2.525,1.987,1.987,0,0,0,1.886,1.25H2.813a1.948,1.948,0,0,0,.744-3.775H3.542l-12.955-5.25-.044-.021H-9.5A1.394,1.394,0,0,0-9.945,302.974Zm0,3.914a1.319,1.319,0,0,1,1.316,1.318A1.318,1.318,0,0,1-9.971,309.5a1.317,1.317,0,0,1-1.316-1.305,1.324,1.324,0,0,1,1.342-1.305Zm-16.117,23.476a1.323,1.323,0,0,0-1.384,1.252,1.315,1.315,0,0,0,1.275,1.357.93.93,0,0,0,.109,0H6.17a1.306,1.306,0,1,0,.107-2.609h-32.34Z" transform="translate(27.447 -302.974)" fill="#7398fc"/>
  <path id="Path_2387" data-name="Path 2387" d="M-23.481,308.452v10.439h-1.347a1.326,1.326,0,0,0-1.388,1.252,1.317,1.317,0,0,0,1.279,1.357.949.949,0,0,0,.109,0H2.121a1.306,1.306,0,1,0,.107-2.609H.775V308.452h-2.7v10.439h-2.7V308.452h-2.7v10.439h-2.7V308.452H-12.7v10.439h-2.7V308.452h-2.7v10.439h-2.7V308.452Z" transform="translate(28.855 -296.71)" fill="#7398fc" opacity="0.4"/>
</svg>
