<svg xmlns="http://www.w3.org/2000/svg" width="48" height="48" viewBox="0 0 48 48">
  <g id="voisin-48x48" transform="translate(-81 -210)">
    <path id="Path_2343" data-name="Path 2343" d="M24,0A24,24,0,1,1,0,24,24,24,0,0,1,24,0Z" transform="translate(81 210)" fill="#d9f5f9"/>
    <g id="Component_68_9" data-name="Component 68 – 9" transform="translate(94 221)">
      <path id="Subtraction_5" data-name="Subtraction 5" d="M-2275-4053h0a1.039,1.039,0,0,1-.976-.776,9.421,9.421,0,0,0-1.976-3.715,8.08,8.08,0,0,0-.759-.532,20.694,20.694,0,0,1-4.427-3.688A10.917,10.917,0,0,1-2286-4069a10.932,10.932,0,0,1,3.222-7.78A10.928,10.928,0,0,1-2275-4080a10.926,10.926,0,0,1,7.778,3.222A10.931,10.931,0,0,1-2264-4069a10.917,10.917,0,0,1-2.862,7.286,20.7,20.7,0,0,1-4.426,3.688,8.04,8.04,0,0,0-.76.532,9.421,9.421,0,0,0-1.976,3.715A1.043,1.043,0,0,1-2275-4053Zm0-14.094c-3.364,0-5,.667-5,2.04s1.635,2.056,5,2.056,5-.668,5-2.042S-2271.635-4067.095-2275-4067.095Zm0-7.905a3.361,3.361,0,0,0-2.343.926,3.092,3.092,0,0,0-.966,2.248,3.093,3.093,0,0,0,.966,2.249,3.361,3.361,0,0,0,2.343.927,3.363,3.363,0,0,0,2.344-.927,3.093,3.093,0,0,0,.966-2.249,3.092,3.092,0,0,0-.966-2.248A3.363,3.363,0,0,0-2275-4075Z" transform="translate(2286 4080)" fill="#40cdde"/>
    </g>
  </g>
</svg>
