<svg xmlns="http://www.w3.org/2000/svg" width="29.5" height="32.07" viewBox="0 0 29.5 32.07">
  <g id="Component_135_1" data-name="Component 135 – 1" transform="translate(0.5 0.5)">
    <path id="Union_26" data-name="Union 26" d="M0,21.76a9.335,9.335,0,0,1,6.67-8.93,9.306,9.306,0,0,1,6.91.66,9.413,9.413,0,0,1,3.72,3.5,9.175,9.175,0,0,1,1.32,4.77A9.31,9.31,0,0,1,0,21.76Zm4.96.2a.773.773,0,0,0,.78.77H8.73v2.99a.78.78,0,0,0,.78.779.809.809,0,0,0,.78-.779l-.011-2.99,2.991.01a.813.813,0,0,0,.75-.61.472.472,0,0,0,.03-.17.781.781,0,0,0-.779-.78H10.28V18.19a.772.772,0,0,0-.779-.77.812.812,0,0,0-.61.31.832.832,0,0,0-.17.46l.01,2.99H5.74A.781.781,0,0,0,4.96,21.96Zm15.66-.2a11.189,11.189,0,0,0-1.11-4.87c2.01-.23,2.99-.87,2.99-1.94,0-1.37-1.64-2.05-5-2.05q-.616,0-1.14.031a11.216,11.216,0,0,0-7.05-2.48,10.87,10.87,0,0,0-2.811.36,11,11,0,1,1,19.14,7.47,20.587,20.587,0,0,1-4.42,3.69c-.21.131-.41.27-.61.41C20.61,22.18,20.62,21.97,20.62,21.76ZM15.161,5.92a3.094,3.094,0,0,0,0,4.5,3.394,3.394,0,0,0,2.34.93,3.437,3.437,0,0,0,2.35-.93,3.118,3.118,0,0,0,0-4.5A3.374,3.374,0,0,0,17.5,5h-.041A3.332,3.332,0,0,0,15.161,5.92Z" fill="#40cdde" stroke="rgba(0,0,0,0)" stroke-miterlimit="10" stroke-width="1"/>
  </g>
</svg>
