<svg id="photo-couverture-28x28" xmlns="http://www.w3.org/2000/svg" width="28" height="28" viewBox="0 0 28 28">
  <g id="Group_1358" data-name="Group 1358">
    <path id="Fill_1" data-name="Fill 1" d="M282.066,114H269.932c-4.745,0-7.932-3.328-7.932-8.282V94.284c0-4.955,3.188-8.284,7.932-8.284h12.135c4.745,0,7.932,3.329,7.932,8.284v11.435c0,4.953-3.188,8.281-7.934,8.281" transform="translate(-262 -86)" fill="#40cdde" opacity="0.4" style="isolation: isolate"/>
    <path id="Combined_Shape" data-name="Combined Shape" d="M268.779,109.448a6.045,6.045,0,0,1-3.121-.792,1.039,1.039,0,0,1-.325-1.442.991.991,0,0,1,.089-.119c.674-.809,1.339-1.621,2.007-2.44,1.279-1.562,2.139-2.021,3.1-1.623a8.127,8.127,0,0,1,1.18.674,4.269,4.269,0,0,0,2.427,1.031,3.786,3.786,0,0,0,2.088-.412,8,8,0,0,0,2.807-3.063c.278-.441.542-.882.849-1.278A2.284,2.284,0,0,1,282.9,99.2a15.23,15.23,0,0,1,2.669,2.2,3.115,3.115,0,0,1,.73,1.079,5.017,5.017,0,0,1-.287,3.77,5.192,5.192,0,0,1-3.221,2.9,6.627,6.627,0,0,1-2.007.294Zm-2.029-15.73a3.563,3.563,0,1,1,3.567,3.528A3.546,3.546,0,0,1,266.751,93.718Z" transform="translate(-261.272 -84.633)" fill="#40cdde"/>
  </g>
</svg>
