<svg id="promotiion-48x48" xmlns="http://www.w3.org/2000/svg" width="48" height="48" viewBox="0 0 48 48">
  <rect id="Rectangle_1648" data-name="Rectangle 1648" width="48" height="48" rx="24" fill="#efe3fb"/>
  <g id="Iconly_Bold_Discount" data-name="Iconly/Bold/Discount" transform="translate(10 9.999)">
    <g id="Discount" transform="translate(2 2.001)">
      <path id="Discount-2" data-name="Discount" d="M12.008,24A3.628,3.628,0,0,1,9.45,22.958l-.876-.878A1.787,1.787,0,0,0,7.3,21.553H6.066a3.618,3.618,0,0,1-3.614-3.615V16.7a1.846,1.846,0,0,0-.528-1.286l-.864-.852a3.626,3.626,0,0,1-.012-5.112l.876-.878a1.8,1.8,0,0,0,.528-1.284V6.068A3.617,3.617,0,0,1,6.066,2.456H7.3a1.813,1.813,0,0,0,1.272-.529l.864-.864a3.62,3.62,0,0,1,5.114-.011l.877.875a1.788,1.788,0,0,0,1.272.529h1.237A3.616,3.616,0,0,1,21.55,6.068V7.306a1.783,1.783,0,0,0,.529,1.27l.864.864a3.638,3.638,0,0,1,.024,5.1l-.024.024-.012.012-.852.852A1.787,1.787,0,0,0,21.55,16.7v1.235a3.618,3.618,0,0,1-3.613,3.615H16.7a1.787,1.787,0,0,0-1.272.526l-.865.864A3.583,3.583,0,0,1,12.008,24Zm3.086-9.962a1.05,1.05,0,1,0,1.044,1.045A1.052,1.052,0,0,0,15.093,14.038Zm-.006-6.175a1.039,1.039,0,0,0-.739.305l-6.17,6.169a1.056,1.056,0,0,0,0,1.488.994.994,0,0,0,.732.312,1,1,0,0,0,.744-.312l6.171-6.168a1.05,1.05,0,0,0-.739-1.794Zm-6.165.005A1.05,1.05,0,1,0,9.966,8.912,1.051,1.051,0,0,0,8.922,7.868Z" transform="translate(0 0)" fill="#b076ea"/>
    </g>
  </g>
</svg>
