<svg id="réglages" xmlns="http://www.w3.org/2000/svg" width="38" height="38" viewBox="0 0 38 38">
  <rect id="Rectangle_1805" data-name="Rectangle 1805" width="38" height="38" rx="19" fill="#e1e7ea"/>
  <g id="Iconly_Bulk_Setting" data-name="Iconly/Bulk/Setting" transform="translate(8.5 9)">
    <g id="Setting" transform="translate(2.5 2)">
      <path id="Path" d="M2.444,4.52A2.348,2.348,0,0,1,0,2.264,2.355,2.355,0,0,1,2.444,0,2.332,2.332,0,0,1,4.862,2.264,2.325,2.325,0,0,1,2.444,4.52" transform="translate(5.566 5.744)" fill="#6a8596"/>
      <path id="Path-2" data-name="Path" d="M15.773,9.9a1.9,1.9,0,0,0-.7-.632,1.271,1.271,0,0,1-.534-.512,1.418,1.418,0,0,1,.551-2,1.579,1.579,0,0,0,.637-2.264l-.577-.944a1.831,1.831,0,0,0-2.418-.608,1.712,1.712,0,0,1-2.169-.552,1.19,1.19,0,0,1-.2-.7,1.369,1.369,0,0,0-.232-.848A1.833,1.833,0,0,0,8.6,0H7.391A1.869,1.869,0,0,0,5.867.832a1.375,1.375,0,0,0-.241.848,1.19,1.19,0,0,1-.2.7,1.7,1.7,0,0,1-2.16.552,1.842,1.842,0,0,0-2.427.608l-.577.944A1.592,1.592,0,0,0,.9,6.752a1.427,1.427,0,0,1,.559,2,1.345,1.345,0,0,1-.542.512A1.745,1.745,0,0,0,.23,9.9a1.528,1.528,0,0,0,.017,1.64l.594.96a1.817,1.817,0,0,0,1.532.832,1.893,1.893,0,0,0,.912-.24,1.391,1.391,0,0,1,.757-.184A1.558,1.558,0,0,1,5.626,14.36,1.7,1.7,0,0,0,7.416,16h1.17a1.7,1.7,0,0,0,1.781-1.64A1.572,1.572,0,0,1,11.96,12.9a1.429,1.429,0,0,1,.757.184,1.869,1.869,0,0,0,.912.24,1.814,1.814,0,0,0,1.523-.832l.6-.96a1.545,1.545,0,0,0,.017-1.64" fill="#6a8596" opacity="0.4"/>
    </g>
  </g>
</svg>
