<svg xmlns="http://www.w3.org/2000/svg" width="96" height="50" viewBox="0 0 96 50">
  <g id="pas-invitations-96x50" transform="translate(0 0)">
    <g id="Group_1259" data-name="Group 1259" transform="translate(34.847 10.098)">
      <path id="Fill_1" data-name="Fill 1" d="M1075.3,249.062a9.318,9.318,0,0,1-9.306,9.325h-18.352a9.319,9.319,0,0,1-9.342-9.289v-.018s.011-8.157.026-12.26a.922.922,0,0,1,1.495-.722c4.4,3.475,12.256,9.808,12.354,9.891a7.543,7.543,0,0,0,4.68,1.64,7.441,7.441,0,0,0,4.681-1.661c.1-.065,7.783-6.209,12.245-9.74a.925.925,0,0,1,1.5.719c.02,4.071.02,12.114.02,12.114" transform="translate(-1038.3 -218.485)" fill="#a0aeb8" opacity="0.4" style="isolation: isolate"/>
      <path id="Path_2419" data-name="Path 2419" d="M1076.358,177.311a1.577,1.577,0,0,0-.586-1.376l-.926-.739-.047-.038-12.677-10.116a5.206,5.206,0,0,0-3.272-1.154h-.037a5.206,5.206,0,0,0-3.272,1.154l-13.65,10.893a1.909,1.909,0,0,0,0,2.751l13.65,10.892a5.2,5.2,0,0,0,3.272,1.154h.037a5.2,5.2,0,0,0,3.272-1.154l13.65-10.893A1.578,1.578,0,0,0,1076.358,177.311Zm-13.328-2.453h0l-1.442,1.422.342,2.011a.912.912,0,0,1-.363.9.885.885,0,0,1-.954.069l-1.781-.948-1.784.949a.883.883,0,0,1-.952-.068.917.917,0,0,1-.361-.9l.341-2.011-1.443-1.422a.919.919,0,0,1-.229-.942.9.9,0,0,1,.734-.622l1.99-.294.892-1.83a.9.9,0,0,1,.812-.511h0a.9.9,0,0,1,.81.512l.892,1.829,1.993.294a.9.9,0,0,1,.729.621A.914.914,0,0,1,1063.03,174.858Z" transform="translate(-1040.574 -163.89)" fill="#a0aeb8"/>
    </g>
    <path id="Path_2421" data-name="Path 2421" d="M8.425,4.078h0l-1.4,1.382.332,1.954A.887.887,0,0,1,7,8.286a.86.86,0,0,1-.927.067l-1.73-.921-1.734.922a.858.858,0,0,1-.925-.066.891.891,0,0,1-.351-.873l.331-1.954L.267,4.079a.893.893,0,0,1-.222-.915.879.879,0,0,1,.713-.6l1.933-.285L3.558.5A.876.876,0,0,1,4.347,0h0a.874.874,0,0,1,.787.5L6,2.274l1.936.286a.873.873,0,0,1,.709.6A.888.888,0,0,1,8.425,4.078Z" transform="translate(84.242 20.007) rotate(-30)" fill="#e4e8eb"/>
    <path id="Path_2422" data-name="Path 2422" d="M13.736,6.648v0L11.452,8.9l.541,3.185a1.446,1.446,0,0,1-.575,1.421,1.4,1.4,0,0,1-1.512.109l-2.82-1.5-2.826,1.5a1.4,1.4,0,0,1-1.507-.108,1.453,1.453,0,0,1-.572-1.423L2.72,8.9.436,6.65A1.456,1.456,0,0,1,.073,5.158a1.433,1.433,0,0,1,1.163-.985l3.152-.465L5.8.809A1.429,1.429,0,0,1,7.086,0h0A1.425,1.425,0,0,1,8.373.811l1.413,2.9,3.157.466a1.423,1.423,0,0,1,1.155.983A1.448,1.448,0,0,1,13.736,6.648Z" transform="matrix(0.966, 0.259, -0.259, 0.966, 3.569, 0)" fill="#e4e8eb"/>
  </g>
</svg>
