<svg xmlns="http://www.w3.org/2000/svg" width="230" height="121.598" viewBox="0 0 230 121.598">
  <g id="premium-230x121" transform="translate(0 0.598)">
    <g id="Group_1555" data-name="Group 1555" transform="translate(-78 -72)">
      <path id="Union_23" data-name="Union 23" d="M-6245.028-4252.579c-6.368-18.646,3.194-38.992,21.359-45.446s38.054,3.43,44.423,22.076a59.294,59.294,0,0,1,2.7,18.709l12.546,12.393-25.725-13.894a24.291,24.291,0,0,0-.609-13.676,23.188,23.188,0,0,0-29.614-14.716c-12.11,4.3-18.486,17.867-14.241,30.3a23.187,23.187,0,0,0,29.616,14.716,22.924,22.924,0,0,0,6.566-3.641l20.807.559c-2.619,15.213-14.012,42.2-14.012,42.2S-6235.333-4224.191-6245.028-4252.579Zm37.541-.422a6.53,6.53,0,0,1-6.512-6.512,6.469,6.469,0,0,1,6.487-6.487,6.533,6.533,0,0,1,6.512,6.514,6.467,6.467,0,0,1-6.473,6.485Zm-16.988-17.488a3.509,3.509,0,0,1,2.938-3.988,3.5,3.5,0,0,1,3.982,2.936,3.507,3.507,0,0,1-2.94,3.987,3.526,3.526,0,0,1-.532.041A3.493,3.493,0,0,1-6224.476-4270.489Z" transform="translate(6391 4372)" fill="#fff" stroke="rgba(0,0,0,0)" stroke-width="1"/>
      <ellipse id="Ellipse_743" cx="22" cy="3" rx="22" ry="3" transform="translate(163 187)" fill="#fff" opacity="0.4"/>
    </g>
    <rect id="Rectangle_1861" data-name="Rectangle 1861" width="14" height="14" rx="7" transform="translate(44 93) rotate(180)" fill="#fff"/>
    <rect id="Rectangle_1913" data-name="Rectangle 1913" width="14" height="14" rx="7" transform="translate(230 18) rotate(180)" fill="#fff"/>
    <rect id="Rectangle_1803" data-name="Rectangle 1803" width="6" height="6" rx="3" transform="translate(6 18) rotate(180)" fill="#fff" opacity="0.5"/>
    <rect id="Rectangle_1914" data-name="Rectangle 1914" width="6" height="6" rx="3" transform="translate(183 68) rotate(180)" fill="#fff" opacity="0.5"/>
  </g>
</svg>
