<svg xmlns="http://www.w3.org/2000/svg" xmlns:xlink="http://www.w3.org/1999/xlink" width="429" height="124" viewBox="0 0 429 124">
  <defs>
    <filter id="Path_2499" x="0" y="0" width="429" height="124" filterUnits="userSpaceOnUse">
      <feOffset dy="3" input="SourceAlpha"/>
      <feGaussianBlur stdDeviation="9" result="blur"/>
      <feFlood flood-opacity="0.078"/>
      <feComposite operator="in" in2="blur"/>
      <feComposite in="SourceGraphic"/>
    </filter>
  </defs>
  <g transform="matrix(1, 0, 0, 1, 0, 0)" filter="url(#Path_2499)">
    <path id="Path_2499-2" data-name="Path 2499" d="M1107.423,504.038h-89.439A25.667,25.667,0,0,0,992.4,528.832c-.007.17-.015.34-.024.511a32.5,32.5,0,0,1-64.951-1.8c0-.092,0-.184,0-.277a22.809,22.809,0,0,0-22.686-23.223H812.423a40,40,0,0,0-40,40v30h375v-30A40,40,0,0,0,1107.423,504.038Z" transform="translate(-745.42 -480.04)" fill="red" opacity="0.97"/>
  </g>
</svg>
