<svg id="administrative-38x38" xmlns="http://www.w3.org/2000/svg" width="38" height="38" viewBox="0 0 38 38">
  <rect id="Rectangle_8" data-name="Rectangle 8" width="38" height="38" rx="19" fill="#38c2ff" opacity="0.2"/>
  <g id="aministrative-18x18" transform="translate(11 10)">
    <path id="icons8-check_inbox" d="M20.112.879a.88.88,0,0,0-.627.262L16.842,3.806,15.164,2.144a.881.881,0,0,0-1.253,0,.9.9,0,0,0,0,1.265l2.064,2.046a.88.88,0,0,0,.208.152.83.83,0,0,0,.05.077.883.883,0,0,0,1.255,0L20.74,2.406a.9.9,0,0,0,0-1.265A.88.88,0,0,0,20.112.879Zm-14.67,1.9A.89.89,0,0,0,4.57,3.5L3.017,11.555c-.006.056-.012.111-.017.168V17.09a1.782,1.782,0,0,0,1.775,1.789H17.2a1.782,1.782,0,0,0,1.775-1.789V11.722l-.016-.168-.872-3.58a.886.886,0,0,0-1.5-.461.9.9,0,0,0-.243.8l.834,3.407H14.536a.889.889,0,0,0-.842.612l-.529,1.6a.687.687,0,0,1-.65.472H9.458a.686.686,0,0,1-.65-.472l-.53-1.6a.887.887,0,0,0-.841-.612H4.792l1.38-7.157h4.813a.9.9,0,0,0,.627-1.527.883.883,0,0,0-.627-.262Z" transform="translate(-3 -0.879)" fill="#38c2ff"/>
  </g>
</svg>
