<svg id="aliments-38x38" xmlns="http://www.w3.org/2000/svg" width="38" height="38" viewBox="0 0 38 38">
  <rect id="Rectangle_8" data-name="Rectangle 8" width="38" height="38" rx="19" fill="#d6f8f1"/>
  <g id="icons8-fish_food" transform="translate(7 10)">
    <path id="icons8-fish_food-2" data-name="icons8-fish_food" d="M24.87,13.117C24.716,12.872,19.177,5,10.429,5a.857.857,0,0,0-.857.857v1.83a23,23,0,0,0-5.348,4.636S2.64,9.791,2.624,9.759a.859.859,0,0,0-1.15-.382A.848.848,0,0,0,1,10.145a19.708,19.708,0,0,0,.857,3.427A19.206,19.206,0,0,0,1,17a.865.865,0,0,0,.425.741A.856.856,0,0,0,2.6,17.432c.018-.031,1.589-2.321,1.589-2.321a17.422,17.422,0,0,0,7.956,5.649v1.383A.857.857,0,0,0,13,23c2.533,0,4.354-1.782,5.162-2.59a8.289,8.289,0,0,1-3.447-6.838,12.233,12.233,0,0,1,.555-3.653.857.857,0,0,1,1.634.519,10.469,10.469,0,0,0-.474,3.134,6.745,6.745,0,0,0,3.427,5.913,15.51,15.51,0,0,0,5.054-5.53A.858.858,0,0,0,24.87,13.117Zm-5.013,1.311a.857.857,0,1,1,.857-.857A.857.857,0,0,1,19.857,14.429Z" transform="translate(-1 -5)" fill="#34d9b8"/>
  </g>
</svg>
