<svg id="animaux-38x38" xmlns="http://www.w3.org/2000/svg" width="38" height="38" viewBox="0 0 38 38">
  <rect id="Rectangle_8" data-name="Rectangle 8" width="38" height="38" rx="19" fill="#38c2ff" opacity="0.2"/>
  <g id="animaux-18x18" transform="translate(10 10)">
    <path id="icons8-dog" d="M14.766,2V4.073L13.109,6.715l3.734,2.329.692-1.517h2.077a.692.692,0,0,0,.6-.351l.005-.009a.69.69,0,0,0,.032-.066l.664-1.321h0a.689.689,0,0,0-.334-.957h0L18.92,4.073s-.178-.691-1.191-.691H16.151A2.413,2.413,0,0,0,14.766,2ZM3.66,6.827a.691.691,0,0,0-.644.856A3.371,3.371,0,0,0,4.644,9.847a2.584,2.584,0,0,0-.247.864,2.762,2.762,0,0,0,0,.413,1.035,1.035,0,0,0-.018.2c0,1.035.179,1.758.181,2.2s-.021.661-.6,1.291a1.035,1.035,0,0,0-.273.7v3.41a1.038,1.038,0,0,0,2.077,0V16.152a7.719,7.719,0,0,0,2.379-2.406h5.927V15.43a1.035,1.035,0,0,0,.02.2l.692,3.5a1.038,1.038,0,1,0,2.036-.4l-.672-3.4V13.554a1.374,1.374,0,0,0,.692-1.19v-1.69L12.169,7.758a2.761,2.761,0,0,1-1.52.46H7.271a2.975,2.975,0,0,0-1.732.568A2.052,2.052,0,0,1,4.366,7.372.692.692,0,0,0,3.66,6.827Zm5.242,8.3A8.836,8.836,0,0,1,7.371,16.7l.495,2.437a1.036,1.036,0,0,0,1.015.83,1.073,1.073,0,0,0,.208-.02A1.037,1.037,0,0,0,9.9,18.721l-.719-3.594Z" transform="translate(-2.996 -2)" fill="#38c2ff"/>
  </g>
</svg>
