<svg id="apero-38x38" xmlns="http://www.w3.org/2000/svg" width="38" height="38" viewBox="0 0 38 38">
  <rect id="Rectangle_8" data-name="Rectangle 8" width="38" height="38" rx="19" fill="#fdc641" opacity="0.2"/>
  <g id="apero-16x18" transform="translate(11 10)">
    <path id="icons8-coconut_cocktail" d="M17.706-.005a.347.347,0,0,0-.141.011l-2.783.72a.36.36,0,0,0-.228.191l-1.4,2.891-.826,1.71-.9,1.878a.371.371,0,0,0,.163.484.328.328,0,0,0,.152.034.355.355,0,0,0,.315-.2l.978-2.036.065.011c1.414.415,2.315,1.139,2.315,1.867,0,.006.011.007.011.011l-.011.022c.829-.394,1.418-.872,1.522-1.339-.151-.97-1.276-1.8-3.076-2.272l1.25-2.6L17.739.7a.361.361,0,0,0,.25-.439A.353.353,0,0,0,17.706-.005ZM5.652,1.794A3.74,3.74,0,0,0,2,5.574,3.822,3.822,0,0,0,3.924,8.9a12.568,12.568,0,0,0-.185,1.89,7.089,7.089,0,0,0,6.956,7.2,7.089,7.089,0,0,0,6.956-7.2,17.779,17.779,0,0,0-.5-3.566,5.751,5.751,0,0,1-2.141,1.327,14.181,14.181,0,0,1-.9,4.758.334.334,0,0,1-.315.214.3.3,0,0,1-.13-.022.37.37,0,0,1-.2-.472A13.978,13.978,0,0,0,14.3,8.791a12.526,12.526,0,0,1-3.609.562c-2.455,0-5.306-.879-6.446-2.115-.058.267-.132.588-.2.922A3.1,3.1,0,0,1,2.7,5.574,3.03,3.03,0,0,1,5.652,2.514,3.03,3.03,0,0,1,8.609,5.574a3.2,3.2,0,0,1-.141.754L6.011,4.741a.342.342,0,0,0-.391.022s-.008,0-.011,0a.167.167,0,0,0-.022.022A2.269,2.269,0,0,0,4.457,6.26c.113.467.708.934,1.511,1.316l.022.011c0-.01.011-.022.011-.034A1.611,1.611,0,0,1,6.891,6.3.309.309,0,0,0,7,6.226l1.533.99a.333.333,0,0,0,.284.038.347.347,0,0,0,.216-.2A3.7,3.7,0,0,0,9.3,5.574c0-.038-.01-.075-.011-.112a8.539,8.539,0,0,1,1.4-.09,7.919,7.919,0,0,1,.9.034h.011l.815-1.7c-.092-.01-.2-.015-.348-.034a11.175,11.175,0,0,0-1.38-.079,11.352,11.352,0,0,0-1.87.135A3.651,3.651,0,0,0,5.652,1.794Z" transform="translate(-2 0.009)" fill="#fdc641"/>
  </g>
</svg>
