<svg id="soins-esthetique-domicile-38x38" xmlns="http://www.w3.org/2000/svg" width="38" height="38" viewBox="0 0 38 38">
  <rect id="Rectangle_8" data-name="Rectangle 8" width="38" height="38" rx="19" fill="#aa87e5" opacity="0.2"/>
  <g id="soins-domicile-18x18" transform="translate(10 10)">
    <path id="icons8-barbershop" d="M8.565,0a1.132,1.132,0,0,0-.949.855A39.848,39.848,0,0,0,6.5,6.95V9.538a1.636,1.636,0,0,0,1.607,1.62.908.908,0,0,1,.893.9V15.77a2.2,2.2,0,0,0,1.931,2.216c.073.007.135.008.212.011a2.1,2.1,0,0,0,1.518-.63,2.175,2.175,0,0,0,.625-1.53v-.652A2.167,2.167,0,0,0,11.5,13a1.878,1.878,0,0,0-.714,0V6.95a42.246,42.246,0,0,0-.937-6.1A1.078,1.078,0,0,0,8.788,0H8.609A.237.237,0,0,0,8.565,0Zm7.007,0a.36.36,0,0,0,0,.72h3.214v.72H15.571a.36.36,0,0,0,0,.72h3.214v.72H15.571a.36.36,0,0,0,0,.72h3.214v.72H15.571a.36.36,0,0,0,0,.72h3.214v.72H15.571a.36.36,0,0,0,0,.72h3.214V7.2H15.571a.36.36,0,0,0,0,.72h3.214v.72H15.571a.36.36,0,0,0,0,.72h3.214v.72H15.571a.36.36,0,0,0,0,.72h3.214v5.58a1.607,1.607,0,1,0,3.214,0V1.8A1.8,1.8,0,0,0,20.214,0ZM8.643,8.638a.72.72,0,1,1-.714.72A.717.717,0,0,1,8.643,8.638ZM6.5,11.2v1.789a1.854,1.854,0,0,0-.357-.034A2.129,2.129,0,0,0,4,15.117v.72a2.143,2.143,0,1,0,4.286,0v-3.78a.191.191,0,0,0-.179-.18A2.309,2.309,0,0,1,6.5,11.2ZM6.143,14.4a.719.719,0,0,1,.714.72v.72a.714.714,0,1,1-1.429,0v-.72A.719.719,0,0,1,6.143,14.4Zm5,0a.719.719,0,0,1,.714.72v.72a.714.714,0,1,1-1.429,0v-.72A.719.719,0,0,1,11.143,14.4Z" transform="translate(-4 0.003)" fill="#aa87e5"/>
  </g>
</svg>
