<svg id="Bricolage" xmlns="http://www.w3.org/2000/svg" width="16" height="16" viewBox="0 0 16 16">
  <path id="icons8-full_tool_storage_box" d="M8,3a1.083,1.083,0,0,0-1.024.7H5.455a.712.712,0,0,0-.727.7v1.39a.712.712,0,0,0,.727.7H6.909c0,1.853,0,4.171,0,4.171h2.18V6.476h2.182a.712.712,0,0,0,.727-.7.689.689,0,0,0-.338-.587v0L9.785,3.7H9.024A1.085,1.085,0,0,0,8,3Zm6.909.31a2.978,2.978,0,0,0-1.455,2.471A1.962,1.962,0,0,0,14.91,7.691v2.956h2.18V7.69a1.961,1.961,0,0,0,1.455-1.909A2.978,2.978,0,0,0,17.091,3.31V5.781L16,6.476l-1.091-.7ZM4.716,10.638a.711.711,0,0,0-.716.7v6.952a.682.682,0,0,0,.252.535.751.751,0,0,0,.59.16H19.15a.751.751,0,0,0,.6-.157A.683.683,0,0,0,20,18.295V11.343a.68.68,0,0,0-.213-.5.745.745,0,0,0-.525-.2.711.711,0,0,0-.716.7v.7H5.455v-.7a.68.68,0,0,0-.213-.5.745.745,0,0,0-.525-.2Zm.739,4.181H18.545v1.39H5.455Z" transform="translate(-4 -3)" fill="#38c2ff"/>
</svg>
