<svg id="garde-enfant-38x38" xmlns="http://www.w3.org/2000/svg" width="38" height="38" viewBox="0 0 38 38">
  <rect id="Rectangle_8" data-name="Rectangle 8" width="38" height="38" rx="19" fill="#38c2fd" opacity="0.2"/>
  <g id="garde-enfant-16x20" transform="translate(11 9)">
    <path id="icons8-single_mother" d="M16.555,3a2.6,2.6,0,0,0-2.667,2.52,2.671,2.671,0,0,0,5.333,0A2.6,2.6,0,0,0,16.555,3Zm0,5.722a3.079,3.079,0,0,0-3.029,2.3L12.47,15.5a4.81,4.81,0,0,0-2.8-.9H9.219a4.775,4.775,0,0,0-3.278,1.284l-.681.641a.807.807,0,0,0,0,1.188.926.926,0,0,0,1.257,0l.639-.6L6.779,22.1A.858.858,0,0,0,7.6,23a.874.874,0,0,0,.95-.779l.005-.061L8.9,19.886a.555.555,0,0,1,1.089,0l.339,2.249.007.084a.874.874,0,0,0,.95.779.858.858,0,0,0,.825-.9l-.377-4.99.622.587.014.015,0,0,.026.025a.927.927,0,0,0,.9.189.855.855,0,0,0,.6-.66v4.864a.922.922,0,0,0,1.835.057l.3-4.229h1.066l.3,4.229a.922.922,0,0,0,1.835-.057V17.96h.889a.91.91,0,0,0,.693-.314.805.805,0,0,0,.175-.708l-1.394-5.92a2.594,2.594,0,0,0-2.9-2.285.939.939,0,0,0-.128-.011ZM9.444,10.4a1.682,1.682,0,1,0,0,3.359,1.682,1.682,0,1,0,0-3.359Z" transform="translate(-5 -3)" fill="#38c2fd"/>
  </g>
</svg>
