<svg id="livraison-achat-courses-38x38" xmlns="http://www.w3.org/2000/svg" width="38" height="38" viewBox="0 0 38 38">
  <rect id="Rectangle_8" data-name="Rectangle 8" width="38" height="38" rx="19" fill="#38c2ff" opacity="0.2"/>
  <g id="livraison-achats-18x14" transform="translate(10 12)">
    <path id="icons8-delivery" d="M1.05,8A1.11,1.11,0,0,0,0,9.094v9.879a1.133,1.133,0,0,0,1.126,1.135H2.663a2.245,2.245,0,0,0,4.435,0h3.769V9.1A1.122,1.122,0,0,0,9.777,8ZM5.632,9.892A3.406,3.406,0,1,1,2.253,13.3,3.4,3.4,0,0,1,5.632,9.892Zm5.986.757v9.459h.409a2.247,2.247,0,0,0,4.438,0h.409A1.191,1.191,0,0,0,18,18.973V15.341a3.329,3.329,0,0,0-.6-1.626l-1.547-2.091a2.277,2.277,0,0,0-1.607-.976Zm-6.362.378v2.081L3.905,14.129l.449.606,1.653-1.249V11.027Zm8.239.378h.751a1.538,1.538,0,0,1,1.013.68l1.533,2.072a2.963,2.963,0,0,1,.446,1.032H13.87a.44.44,0,0,1-.375-.378ZM4.881,18.216a1.514,1.514,0,1,1-1.5,1.514A1.5,1.5,0,0,1,4.881,18.216Zm9.365,0a1.514,1.514,0,1,1-1.5,1.514A1.509,1.509,0,0,1,14.246,18.216Z" transform="translate(0 -8)" fill="#38c2ff"/>
  </g>
</svg>
