<svg xmlns="http://www.w3.org/2000/svg" width="38" height="38" viewBox="0 0 38 38">
  <g id="Group_1659" data-name="Group 1659" transform="translate(-1697 5375)">
    <g id="education-38x38" transform="translate(1697 -5375)">
      <rect id="Rectangle_8" data-name="Rectangle 8" width="38" height="38" rx="19" fill="#d6f8f1"/>
    </g>
    <g id="education-18-16" transform="translate(1707 -5364)">
      <path id="icons8-student_male" d="M9,1a.606.606,0,0,0-.3.079l0,0L.3,5.815v.006a.588.588,0,0,0,.11,1.074h0L3,7.957V6.794a1.18,1.18,0,0,1,.534-.986A10.3,10.3,0,0,1,9,4.556a10.3,10.3,0,0,1,5.466,1.252A1.18,1.18,0,0,1,15,6.794V7.957l1.2-.492v6.144a1.177,1.177,0,0,0-.6,1.021A7.8,7.8,0,0,0,16.8,17,7.8,7.8,0,0,0,18,14.63a1.177,1.177,0,0,0-.6-1.021V6.973l.189-.078h0a.588.588,0,0,0,.11-1.074V5.815L9.3,1.074l0,0A.606.606,0,0,0,9,1ZM9,5.741A9.27,9.27,0,0,0,4.2,6.794V8.7A1.2,1.2,0,0,0,3,9.889v.593a2.466,2.466,0,0,0,.805,1.89,1.164,1.164,0,0,0,.476.259,5.033,5.033,0,0,0,.77,1.735A4.617,4.617,0,0,0,8.909,16.4a.651.651,0,0,0,.173,0,4.618,4.618,0,0,0,3.867-2.036,5.033,5.033,0,0,0,.77-1.735,1.164,1.164,0,0,0,.476-.259A2.466,2.466,0,0,0,15,10.481V9.889A1.2,1.2,0,0,0,13.8,8.7V6.794A9.27,9.27,0,0,0,9,5.741Zm0,2.7a11.521,11.521,0,0,1,3.573.519c.017.294.027.6.027.929h1.2v.593a1.168,1.168,0,0,1-.395,1,.921.921,0,0,1-.35.2l-.382.095-.064.383a4.441,4.441,0,0,1-.657,1.546A3.275,3.275,0,0,1,9,15.222a3.275,3.275,0,0,1-2.951-1.514,4.441,4.441,0,0,1-.657-1.546l-.064-.383-.382-.095a.921.921,0,0,1-.35-.2,1.168,1.168,0,0,1-.395-1V9.889H5.4a3.193,3.193,0,0,1,.136-.961A11.556,11.556,0,0,1,9,8.441Z" transform="translate(0 -1)" fill="#34d9b8"/>
    </g>
  </g>
</svg>
