<svg id="jardinage-38x38" xmlns="http://www.w3.org/2000/svg" width="38" height="38" viewBox="0 0 38 38">
  <rect id="Rectangle_8" data-name="Rectangle 8" width="38" height="38" rx="19" fill="#aa87e5" opacity="0.2"/>
  <g id="jardinage-18x18" transform="translate(10 10)">
    <path id="icons8-watering_can" d="M12.942,1A6.482,6.482,0,0,0,6.48,7.32.721.721,0,0,0,6.68,8l0,0,.01.01A.718.718,0,0,0,7.3,8.2h8.512a.72.72,0,0,0,0-1.44H7.966a5.03,5.03,0,1,1,7.851,4.857V9.64H6.472V11.8l-3-1.756A.719.719,0,0,0,2.34,9.177l-.719.72a.72.72,0,0,0,.986,1.048L6.472,16.12v1.44A1.438,1.438,0,0,0,7.91,19h6.47a1.438,1.438,0,0,0,1.438-1.44V13.275A6.476,6.476,0,0,0,12.942,1Z" transform="translate(-1.411 -1)" fill="#aa87e5"/>
  </g>
</svg>
