<svg id="aide-personnes-ages-38x38" xmlns="http://www.w3.org/2000/svg" width="38" height="38" viewBox="0 0 38 38">
  <rect id="Rectangle_8" data-name="Rectangle 8" width="38" height="38" rx="19" fill="#38c2ff" opacity="0.2"/>
  <g id="personnes-agees-18x18" transform="translate(10 10)">
    <path id="Path_2444" data-name="Path 2444" d="M500.749-71.19l-.007-.026-.985-5.58a.5.5,0,0,0-.479-.414.5.5,0,0,0-.5.492.5.5,0,0,0,.013.1l.985,5.58a.5.5,0,0,0,.558.414.5.5,0,0,0,.42-.492A.268.268,0,0,0,500.749-71.19Z" transform="translate(-482.756 88.62)" fill="#38c2ff"/>
    <path id="Path_2445" data-name="Path 2445" d="M485.813-70.774a.687.687,0,0,0-.033.2.654.654,0,0,0,.656.656.653.653,0,0,0,.637-.5l1.044-3.144-1.339-1.556Z" transform="translate(-478.146 87.903)" fill="#38c2ff"/>
    <circle id="Ellipse_60" data-name="Ellipse 60" cx="1.641" cy="1.641" r="1.641" transform="translate(13.398 1.57)" fill="#38c2ff"/>
    <path id="Path_2446" data-name="Path 2446" d="M495.314-82.292a.636.636,0,0,0-.158-.427l-3.381-4.727a1.66,1.66,0,0,0-1.385-.755,1.624,1.624,0,0,0-1.123.453h-.007a6.5,6.5,0,0,0-1.864,2.363,6.286,6.286,0,0,0-.512,1.654,6.483,6.483,0,0,0-.092.945,1.494,1.494,0,0,0-.013.164,1.68,1.68,0,0,0,.394,1.07l2.4,2.77,1.838,3.926a.657.657,0,0,0,.617.44.654.654,0,0,0,.656-.656.744.744,0,0,0-.039-.236h.007l-1.306-4.077-1.28-2.993a4.624,4.624,0,0,1,1.267-2.7l2.777,3.151a.653.653,0,0,0,.545.3A.65.65,0,0,0,495.314-82.292Z" transform="translate(-478.633 92.396)" fill="#38c2ff"/>
    <path id="Path_2447" data-name="Path 2447" d="M478.942-92.7a1.655,1.655,0,0,0,1.654-1.654,1.655,1.655,0,0,0-1.654-1.654,1.65,1.65,0,0,0-1.649,1.654A1.65,1.65,0,0,0,478.942-92.7Z" transform="translate(-474.971 96.01)" fill="#38c2ff"/>
    <path id="Path_2448" data-name="Path 2448" d="M480.415-87.377a2.068,2.068,0,0,0-1.807-1.163h-1.6a2.167,2.167,0,0,0-2.03,1.779l-1.136,5.073a.791.791,0,0,0,.508.947.692.692,0,0,0,.846-.568l.725-3.219v8.475a.765.765,0,0,0,.713.812.762.762,0,0,0,.725-.758l.308-5.134a.369.369,0,0,1,.344-.392.373.373,0,0,1,.35.392L478.668-76a.745.745,0,0,0,.78.737.775.775,0,0,0,.659-.791v-8.82l.338.643a.807.807,0,0,0,.181.23l.357.3a7.048,7.048,0,0,1,.471-1.7Z" transform="translate(-473.82 92.633)" fill="#38c2ff"/>
  </g>
</svg>
