<svg id="high-tech-38x38" xmlns="http://www.w3.org/2000/svg" width="38" height="38" viewBox="0 0 38 38">
  <rect id="Rectangle_8" data-name="Rectangle 8" width="38" height="38" rx="19" fill="#d6f8f1"/>
  <g id="high-tech-18x18" transform="translate(10 10)">
    <path id="Game" d="M9.009,18c-1.439,0-2.618-.011-3.71-.035a5.079,5.079,0,0,1-5.3-5.2V8.887a5.084,5.084,0,0,1,5.308-5.2c1.085-.016,2.315-.034,3.542-.034V3.5a1.1,1.1,0,0,0-1.1-1.084H6.871A1.792,1.792,0,0,1,5.061.65.665.665,0,0,1,5.724,0a.657.657,0,0,1,.663.65.477.477,0,0,0,.485.468h.875a2.428,2.428,0,0,1,2.428,2.376v.164c.541,0,1.092.008,1.624.015l.9.011a5.079,5.079,0,0,1,5.3,5.2v3.876a5.079,5.079,0,0,1-5.3,5.2C11.609,17.989,10.436,18,9.009,18ZM4.778,10.17a.665.665,0,0,0-.663.65.657.657,0,0,0,.663.65h.936v.919a.657.657,0,0,0,.663.65.665.665,0,0,0,.662-.65v-.919h.927a.657.657,0,0,0,.663-.65.665.665,0,0,0-.663-.65H7.039V9.26a.662.662,0,0,0-1.324,0v.91Zm8.452,1.517a.657.657,0,0,0-.663.65.65.65,0,0,0,.663.65h.088a.657.657,0,0,0,.663-.65.665.665,0,0,0-.663-.65Zm-1.51-2.982a.657.657,0,0,0-.663.65.65.65,0,0,0,.663.65h.088a.651.651,0,1,0,0-1.3Z" fill="#34d9b8"/>
  </g>
</svg>
