<svg id="alimentation" xmlns="http://www.w3.org/2000/svg" width="38" height="38" viewBox="0 0 38 38">
  <rect id="Rectangle_8" data-name="Rectangle 8" width="38" height="38" rx="19" fill="#aa87e5" opacity="0.2"/>
  <g id="entretien-18x18" transform="translate(10 10)">
    <path id="icons8-broom" d="M20.208,3.009a.921.921,0,0,0-.882.379l-3.29,4.63L15.112,7.5a1.57,1.57,0,0,0-1.941.33l-.879.993,7.379,4.171.4-1.3a1.568,1.568,0,0,0-.734-1.834l-.681-.381,2.266-5.192a.925.925,0,0,0-.715-1.283ZM3.75,6a.75.75,0,1,0,.75.75A.75.75,0,0,0,3.75,6Zm1.5,2.25a1.5,1.5,0,1,0,1.5,1.5,1.5,1.5,0,0,0-1.5-1.5Zm6.009,1.894A13.242,13.242,0,0,1,3,14.068l3.678,2.225a11.951,11.951,0,0,0,2.566.012c-.787.533-1.279.8-1.279.8l2,1.223a11.371,11.371,0,0,0,4.8-1.692,16.324,16.324,0,0,1-2.351,3.044L15.262,21s2.345-1.7,3.935-6.384Z" transform="translate(-3 -2.999)" fill="#aa87e5"/>
  </g>
</svg>
