<svg id="repassage-38x38" xmlns="http://www.w3.org/2000/svg" width="38" height="38" viewBox="0 0 38 38">
  <rect id="Rectangle_8" data-name="Rectangle 8" width="38" height="38" rx="19" fill="#38c2ff" opacity="0.2"/>
  <g id="repassage-18x14" transform="translate(10 12)">
    <path id="icons8-iron" d="M5.995,13a.642.642,0,0,0-.653.688c0,.481.945,1.513.945,1.513a2.4,2.4,0,0,0,1.938.823,7.908,7.908,0,0,0,3.285-.539,2.3,2.3,0,0,1,.9-.217,2.949,2.949,0,0,1,2.883,2.647h2.618C17.547,14.738,15.611,13,12.352,13Zm4.043,4.167a1.051,1.051,0,0,0-1.011.749l4.021,0a1.058,1.058,0,0,0-1.008-.744Zm-.676,1.505c-.215,0-.427.009-.638.024-.033,0-.066.008-.1.011-.185.016-.369.037-.551.065l-.053.01c-2.717.439-4.36,2.245-6.661,5.562h0C.932,24.961.5,25.633.075,26.367a.394.394,0,0,0,.04.54.373.373,0,0,0,.332.083H17.23a.759.759,0,0,0,.75-.756V19.113A.38.38,0,0,0,17.9,18.8a.374.374,0,0,0-.29-.132ZM8.225,21.318a.756.756,0,1,1-.75.756A.754.754,0,0,1,8.225,21.318Zm2.627,0a.756.756,0,1,1-.75.756A.754.754,0,0,1,10.851,21.318Zm2.627,0a.756.756,0,1,1-.75.756A.754.754,0,0,1,13.478,21.318Zm3.752,3.393v1.522H1.033c.328-.54.654-1.046.98-1.512h15.17A.349.349,0,0,0,17.23,24.712Z" transform="translate(0.014 -13)" fill="#38c2ff"/>
  </g>
</svg>
