<svg id="rencontre-38x38" xmlns="http://www.w3.org/2000/svg" width="38" height="38" viewBox="0 0 38 38">
  <rect id="Rectangle_8" data-name="Rectangle 8" width="38" height="38" rx="19" fill="#AA87E5" opacity="0.2"/>
  <g id="rencontre-18x16" transform="translate(10 11)">
    <path id="_2_Friends" data-name="2 Friends" d="M0,13.26c0-2.175,3.047-2.72,6.614-2.72,3.587,0,6.614.563,6.614,2.74S10.182,16,6.614,16C3.028,16,0,15.437,0,13.26Zm14.97.422c.307-2.766-2.129-4.078-2.76-4.38a.047.047,0,0,1-.03-.048.037.037,0,0,1,.033-.025,16.755,16.755,0,0,1,3.373.283,2.877,2.877,0,0,1,2.216,1.3,1.852,1.852,0,0,1,0,1.669c-.479,1-2.021,1.32-2.621,1.4l-.027,0A.186.186,0,0,1,14.97,13.682ZM2.238,4.234A4.291,4.291,0,0,1,6.614,0a4.291,4.291,0,0,1,4.376,4.234A4.291,4.291,0,0,1,6.614,8.466,4.291,4.291,0,0,1,2.238,4.234ZM12.347,7.842a3.706,3.706,0,0,1-.5-.046.157.157,0,0,1-.11-.244A5.66,5.66,0,0,0,11.645.938a.1.1,0,0,1-.016-.11.134.134,0,0,1,.085-.05A3.829,3.829,0,0,1,12.45.707a3.607,3.607,0,0,1,3.562,4.512,3.63,3.63,0,0,1-3.565,2.624Z" fill="#AA87E5"/>
  </g>
</svg>
