<svg id="alimentation" xmlns="http://www.w3.org/2000/svg" width="38" height="38" viewBox="0 0 38 38">
  <rect id="Rectangle_8" data-name="Rectangle 8" width="38" height="38" rx="19" fill="#38c2ff" opacity="0.2"/>
  <g id="quotidien-20x19" transform="translate(9 10)">
    <path id="icons8-alarm_on" d="M5.9,2A4.033,4.033,0,0,0,3.178,3.164,3.96,3.96,0,0,0,2.99,8.6l5.7-5.626A4.1,4.1,0,0,0,5.9,2Zm12.2.01a4.1,4.1,0,0,0-2.784.977l5.7,5.624a3.958,3.958,0,0,0-.189-5.439A4.028,4.028,0,0,0,18.1,2.012ZM12,4.28a8.413,8.413,0,0,0-8.465,8.36,8.267,8.267,0,0,0,2.328,5.746L4.534,19.7a.753.753,0,0,0,0,1.075.777.777,0,0,0,1.088,0l1.4-1.386a8.505,8.505,0,0,0,9.956,0l1.4,1.386a.776.776,0,0,0,1.088,0,.753.753,0,0,0,0-1.075l-1.333-1.317a8.267,8.267,0,0,0,2.328-5.746A8.413,8.413,0,0,0,12,4.28Zm4.617,4.56a.772.772,0,0,1,.544.223.753.753,0,0,1,0,1.075l-5.818,5.746a.776.776,0,0,1-1.088,0L7.6,13.259a.753.753,0,0,1,0-1.075.776.776,0,0,1,1.088,0L10.8,14.271l5.274-5.209A.772.772,0,0,1,16.621,8.84Z" transform="translate(-1.999 -2)" fill="#38c2ff"/>
  </g>
</svg>
