<svg id="objet-38x38" xmlns="http://www.w3.org/2000/svg" width="38" height="38" viewBox="0 0 38 38">
  <rect id="Rectangle_8" data-name="Rectangle 8" width="38" height="38" rx="19" fill="#d6f8f1"/>
  <g id="objet-divers-22x14" transform="translate(10.304 11)">
    <path id="icons8-desk_lamp" d="M6.174,3A1.391,1.391,0,0,0,4.783,4.391V6.478A3.712,3.712,0,0,0,2,9.956H4.783a1.391,1.391,0,1,0,2.783,0h2.783A3.712,3.712,0,0,0,7.565,6.478V4.391A1.391,1.391,0,0,0,6.174,3Zm8.348.7a1.391,1.391,0,0,0-1.2.7H8.956V5.783h4.363a1.391,1.391,0,0,0,1.2.7h.048L16.772,10a1.379,1.379,0,0,0-.038,1.224l-3.6,3.6h2.783l1.868-2.8A1.391,1.391,0,1,0,18,9.261h-.049L15.75,5.74A1.391,1.391,0,0,0,14.522,3.7ZM10.613,16.217a2.8,2.8,0,0,0-.863,1.391h-.1a.7.7,0,1,0,0,1.391H18a.7.7,0,1,0,0-1.391h-.1a2.8,2.8,0,0,0-.863-1.391Z" transform="translate(-2 -3)" fill="#36d8bf"/>
  </g>
</svg>
