<svg id="fete-38x38" xmlns="http://www.w3.org/2000/svg" width="38" height="38" viewBox="0 0 38 38">
  <rect id="Rectangle_8" data-name="Rectangle 8" width="38" height="38" rx="19" fill="#AA87E5" opacity="0.2"/>
  <g id="fete-18x18" transform="translate(10 10)">
    <path id="icons8-confetti" d="M13.88,3,12.8,4.125l1.08,1.125,1.08-1.125Zm-5.76.75A1.126,1.126,0,0,0,8.12,6H9.208a.732.732,0,0,1,.72.739C9.942,7.981,9.92,10.5,9.92,10.5A9.763,9.763,0,0,0,11.36,6,2.11,2.11,0,0,0,9.2,3.75Zm9.72,0a1.482,1.482,0,0,0-1.44,1.5v1.5h-.72a1.482,1.482,0,0,0-1.44,1.5V9h-.053a2.649,2.649,0,0,0-1.633.567L12.5,9.61l-1.671,1.883,1.057,1.02,1.554-1.753a1.242,1.242,0,0,1,.744-.258h.053A1.482,1.482,0,0,0,15.68,9v-.75h.72a1.482,1.482,0,0,0,1.44-1.5v-1.5H20V3.75ZM4.52,4.5,3.44,5.626,4.52,6.751,5.6,5.626ZM3.08,9,2,10.128l1.08,1.125,1.08-1.125ZM18.92,9l-1.08,1.125,1.08,1.125L20,10.128ZM6.313,9.745a.721.721,0,0,0-.667.468.773.773,0,0,0,.165.82l.218.227L2.795,19.687a.937.937,0,0,0,1.192,1.243l8.086-3.37.218.227a.7.7,0,0,0,1.018,0,.773.773,0,0,0,0-1.061l-3.222-3.357-3.258-3.4A.706.706,0,0,0,6.313,9.745ZM17.12,12a8.9,8.9,0,0,0-4.32,1.5s2.42-.023,3.611-.009a.733.733,0,0,1,.709.75V15.38a1.081,1.081,0,1,0,2.16,0V14.254A2.105,2.105,0,0,0,17.12,12Zm-1.08,5.252-1.08,1.125,1.08,1.125,1.08-1.125Z" transform="translate(-2 -3)" fill="#AA87E5"/>
  </g>
</svg>
