<svg id="preparation-repas-18x18" xmlns="http://www.w3.org/2000/svg" width="18" height="18" viewBox="0 0 18 18">
  <path id="icons8-fried_chicken" d="M21.962,13.572,20.248,9.8a.425.425,0,0,0-.039-.054c-.009-.013-.013-.029-.021-.042s-.013-.008-.021-.013a.372.372,0,0,0-.09-.071.55.55,0,0,0-.051-.029.311.311,0,0,0-.137-.029.111.111,0,0,0-.03-.008H18.133c0-.07.011-.138.011-.209a3.468,3.468,0,0,0-.159-1.039c.017,0,.021-.008,0-.008-.013-.04-.029-.079-.043-.118l.97-.949a1.666,1.666,0,0,0,.891.221,1.807,1.807,0,0,0,1.23-.517A1.654,1.654,0,0,0,20.3,4.1a1.609,1.609,0,0,0-.436-.759,1.636,1.636,0,0,0-1.233-.48,1.807,1.807,0,0,0-1.23.517,1.694,1.694,0,0,0-.3,2.073l-.809.79A3.689,3.689,0,0,0,14.5,5.785h-.069c-.039,0-.077,0-.12,0a3.847,3.847,0,0,0-1.071.176,3.75,3.75,0,0,0-1.251.67.4.4,0,0,1-.124.067.434.434,0,0,1-.48-.121.416.416,0,0,1,.056-.591,4.008,4.008,0,0,1,.767-.5,3.491,3.491,0,0,0-.921-.121,1.8,1.8,0,0,0-.214.008,1.371,1.371,0,0,0-.189.017c-.056,0-.107.013-.163.021a3.464,3.464,0,0,0-.453.108l-.925-.9a1.7,1.7,0,0,0-.3-2.073,1.774,1.774,0,0,0-2.463-.038,1.609,1.609,0,0,0-.436.759A1.655,1.655,0,0,0,5.4,6.1a1.794,1.794,0,0,0,2.121.3l.749.732a3.243,3.243,0,0,0-.3,2.43H6.143c-.013,0-.021.008-.034.008a.36.36,0,0,0-.133.029.244.244,0,0,0-.056.034.407.407,0,0,0-.086.063c-.009.008-.013.008-.021.017s-.013.029-.021.042a.425.425,0,0,0-.039.054l-1.714,3.77a.412.412,0,0,0,.214.553.443.443,0,0,0,.176.038.426.426,0,0,0,.39-.247l1.153-2.53,1.551,8.3a.425.425,0,0,0,.42.343H18.058a.425.425,0,0,0,.42-.343l1.551-8.3,1.153,2.53a.426.426,0,0,0,.39.247.443.443,0,0,0,.176-.038A.412.412,0,0,0,21.962,13.572Zm-4-7.783a.412.412,0,0,0,0-.592A.854.854,0,0,1,18,3.974a.945.945,0,0,1,.643-.272.861.861,0,0,1,.608.235.793.793,0,0,1,.235.55.423.423,0,0,0,.414.405.832.832,0,0,1,.563.23.854.854,0,0,1-.039,1.223.945.945,0,0,1-.643.272.845.845,0,0,1-.608-.235.435.435,0,0,0-.606,0L17.54,7.388a3.633,3.633,0,0,0-.555-.643Zm-10.1-.245a.435.435,0,0,0-.606,0,.84.84,0,0,1-.609.235.946.946,0,0,1-.643-.272.853.853,0,0,1-.039-1.223.831.831,0,0,1,.563-.23.424.424,0,0,0,.415-.405.788.788,0,0,1,.234-.55.9.9,0,0,1,1.251.038.854.854,0,0,1,.039,1.223.412.412,0,0,0,0,.592L9.44,5.9a3.438,3.438,0,0,0-.661.539Zm10.277,8.619H7.858l-1.286-3.77H19.429Z" transform="translate(-4.001 -2.027)" fill="#38c2ff"/>
</svg>
