<svg id="repas-38x38" xmlns="http://www.w3.org/2000/svg" width="38" height="38" viewBox="0 0 38 38">
  <rect id="Rectangle_8" data-name="Rectangle 8" width="38" height="38" rx="19" fill="#d6f8f1"/>
  <g id="repas-14x18" transform="translate(12 10)">
    <path id="icons8-restaurant" d="M12.861,0q-.158,0-.3,0V4.32a.365.365,0,0,1-.731,0V.053a2.858,2.858,0,0,0-1.316.378l-.123.091-.02.152C10.354.794,10,3.6,10,5.4a2.763,2.763,0,0,0,1.368,2.419c.245.181.458.337.458.461,0,.3-.057.975-.124,1.762-.108,1.275-.243,2.862-.241,4,0,2.96.368,3.959,1.46,3.96h.007a1.075,1.075,0,0,0,1.092-.757,9.107,9.107,0,0,0,.364-3.2c0-1.135-.133-2.718-.24-3.991-.067-.79-.126-1.474-.126-1.769,0-.122.21-.273.451-.449A2.751,2.751,0,0,0,15.844,5.4c0-1.187-.352-4.573-.367-4.717L15.458.5,15.3.412A3.513,3.513,0,0,0,14.018.067V4.32a.365.365,0,0,1-.731,0V.01C13.152,0,13.012,0,12.861,0Zm7.792,0a.37.37,0,0,0-.168.058.358.358,0,0,0-.164.3V4.32c0,.075,0,.467.01.984.01,1.014.026,2.51.026,3.03,0,.322-.074,1.382-.156,2.5-.116,1.613-.245,3.442-.245,4.281,0,1.99.1,2.862,1.1,2.863.833,0,1.826-.747,1.826-4.3a7.884,7.884,0,0,0-.5-2.649,3.344,3.344,0,0,1-.234-.951,4.439,4.439,0,0,1,.736-1.817A6.636,6.636,0,0,0,24,5.066,5.347,5.347,0,0,0,20.828.029.359.359,0,0,0,20.653,0Z" transform="translate(-10 0)" fill="#34d9b8"/>
  </g>
</svg>
