<svg id="soutien-scolaire-38x38" xmlns="http://www.w3.org/2000/svg" width="38" height="38" viewBox="0 0 38 38">
  <rect id="Rectangle_8" data-name="Rectangle 8" width="38" height="38" rx="19" fill="#38c2ff" opacity="0.2"/>
  <g id="soutien-scolaire-18x18" transform="translate(10 10)">
    <path id="icons8-abc" d="M10.764,4a1.033,1.033,0,0,0-.775.249,1.159,1.159,0,0,0-.239.819V11.54a1.183,1.183,0,0,0,.233.813,1.017,1.017,0,0,0,.779.255h2.522a8.512,8.512,0,0,0,1.141-.067,3.271,3.271,0,0,0,.867-.232,2.15,2.15,0,0,0,.957-.854,2.441,2.441,0,0,0,.354-1.3,2.084,2.084,0,0,0-1.626-2.1,1.979,1.979,0,0,0,1.238-1.891,2.148,2.148,0,0,0-.117-.714,2.114,2.114,0,0,0-.861-1.078,2.125,2.125,0,0,0-.776-.293A6.006,6.006,0,0,0,13.436,4Zm.658,1.31h1.356a3.266,3.266,0,0,1,1.356.214.866.866,0,0,1,.445.867,1.094,1.094,0,0,1-.141.552.934.934,0,0,1-.521.469,2.956,2.956,0,0,1-.965.124H11.421Zm0,3.476H13.16a2.383,2.383,0,0,1,1.313.293,1.053,1.053,0,0,1,.438.945q0,1.274-1.695,1.275H11.421ZM6.668,10.261a1.087,1.087,0,0,0-.558.133,1.068,1.068,0,0,0-.365.349,2.914,2.914,0,0,0-.261.543c-.081.218-.152.4-.209.559L3.234,17.251c-.083.216-.144.385-.18.506A1.206,1.206,0,0,0,3,18.108a.73.73,0,0,0,.234.529.74.74,0,0,0,.538.232.594.594,0,0,0,.517-.219,3.83,3.83,0,0,0,.381-.844l.381-1.067H8.3l.381,1.044c.051.129.111.278.182.446a1.8,1.8,0,0,0,.2.374.667.667,0,0,0,.229.193.694.694,0,0,0,.327.072.809.809,0,0,0,.79-.772,2.78,2.78,0,0,0-.245-.891L8.073,11.835q-.147-.4-.243-.645a2.472,2.472,0,0,0-.233-.452,1.051,1.051,0,0,0-.929-.477Zm-.01,1.778,1.2,3.435H5.476Zm11.033,1.353a3.824,3.824,0,0,0-1.5.3,3.483,3.483,0,0,0-1.225.861,3.881,3.881,0,0,0-.8,1.36,5.389,5.389,0,0,0-.281,1.8A5.9,5.9,0,0,0,14,18.877a4.716,4.716,0,0,0,.335,1.035,4.129,4.129,0,0,0,.538.877,3.206,3.206,0,0,0,.776.7,3.136,3.136,0,0,0,.939.388A4.872,4.872,0,0,0,17.735,22a3.565,3.565,0,0,0,1.459-.278A3.01,3.01,0,0,0,20.222,21a3.118,3.118,0,0,0,.59-.908A2.3,2.3,0,0,0,21,19.229a.718.718,0,0,0-.205-.524.67.67,0,0,0-.5-.209.567.567,0,0,0-.491.206,1.848,1.848,0,0,0-.255.538,2.174,2.174,0,0,1-.727,1.058,1.914,1.914,0,0,1-1.179.361,1.976,1.976,0,0,1-1.121-.316,2.024,2.024,0,0,1-.74-.963,4.33,4.33,0,0,1-.262-1.616,3.685,3.685,0,0,1,.59-2.242,1.88,1.88,0,0,1,1.586-.79,1.762,1.762,0,0,1,1.053.307,2.521,2.521,0,0,1,.743.925,2.157,2.157,0,0,0,.346.529.631.631,0,0,0,.464.153.612.612,0,0,0,.475-.222.747.747,0,0,0,.195-.511,2.021,2.021,0,0,0-.4-1.122,3.155,3.155,0,0,0-1.159-1A3.616,3.616,0,0,0,17.691,13.391Z" transform="translate(-3 -4)" fill="#38c2ff"/>
  </g>
</svg>
