<svg id="spectacle-38x38" xmlns="http://www.w3.org/2000/svg" width="38" height="38" viewBox="0 0 38 38">
  <rect id="Rectangle_8" data-name="Rectangle 8" width="38" height="38" rx="19" fill="#AA87E5" opacity="0.2"/>
  <g id="spectacle-18x16" transform="translate(10 13)">
    <path id="Ticket" d="M14.6,12H11.76a.513.513,0,0,1-.531-.491V9.769a.623.623,0,0,0-.653-.6.631.631,0,0,0-.653.6v1.74a.512.512,0,0,1-.53.491H3.4A3.287,3.287,0,0,1,0,8.851V7.642a.612.612,0,0,1,.665-.567A1.129,1.129,0,0,0,1.819,6,1.071,1.071,0,0,0,.653,4.989a.679.679,0,0,1-.462-.177A.578.578,0,0,1,0,4.385V3.157A3.3,3.3,0,0,1,3.412,0H9.393a.512.512,0,0,1,.53.491V2.553a.638.638,0,0,0,.653.6.631.631,0,0,0,.653-.6V.491A.513.513,0,0,1,11.76,0H14.6A3.287,3.287,0,0,1,18,3.149V4.321a.582.582,0,0,1-.191.427.678.678,0,0,1-.462.177A1.123,1.123,0,0,0,16.181,6a1.129,1.129,0,0,0,1.154,1.079A.612.612,0,0,1,18,7.642V8.851A3.287,3.287,0,0,1,14.6,12ZM10.575,4.031a.638.638,0,0,0-.653.6V7.856a.638.638,0,0,0,.653.6.631.631,0,0,0,.653-.6V4.635A.63.63,0,0,0,10.575,4.031Z" fill="#AA87E5"/>
  </g>
</svg>
