<svg id="accompagnement-enfants-38x38" xmlns="http://www.w3.org/2000/svg" width="38" height="38" viewBox="0 0 38 38">
  <rect id="Rectangle_8" data-name="Rectangle 8" width="38" height="38" rx="19" fill="#aa87e5" opacity="0.2"/>
  <g id="accompagnement-enfants-18x18" transform="translate(10 10)">
    <path id="icons8-students" d="M5.858,0A1.8,1.8,0,1,0,7.667,1.8,1.8,1.8,0,0,0,5.858,0ZM2.251,3.509a.987.987,0,0,0-.95.709L.114,8.155a1.076,1.076,0,0,0,.057.9.881.881,0,0,0,.6.439l1.56.36a1,1,0,0,0,.158.022A1.95,1.95,0,0,1,2.5,9.212c.078-.461.832-3.8,1.1-4.96V4.229a.913.913,0,0,1,.158-.292c-.03-.01-.049-.027-.079-.034l-1.244-.36A1.047,1.047,0,0,0,2.251,3.509Zm2.182.45a.53.53,0,0,0-.486.371C3.684,5.488,2.936,8.821,2.862,9.269a1.767,1.767,0,0,0,.226,1.26l-.871,3.239S.764,15.859.351,16.456c-.3.447-.524.973,0,1.384.6.447,1.046-.148,1.345-.484.263-.3,1.43-1.873,1.73-2.283a2.007,2.007,0,0,0,.407-.709c.071-.142.465-1.233.633-1.7,1.109,1.717,2.714,4.189,3.041,4.623.449.6.866.863,1.5.529.524-.3.447-.966.147-1.451s-3.754-6.052-3.754-6.052L6.05,7.638s.411.778.6,1.114a1.088,1.088,0,0,0,.486.371c.3.187,1.122.643,1.572.866.413.187.94.262,1.165-.112A.755.755,0,0,0,9.5,8.9c-.338-.149-1.843-1.046-1.843-1.046S6.9,5.971,6.491,5.039c-.375-.858-.67-1.08-1.232-1.08Zm10.232.371a1.62,1.62,0,1,0,1.628,1.62A1.624,1.624,0,0,0,14.666,4.331ZM12,7.514a1.09,1.09,0,0,0-1.029.787c-.083.226-.223.689-.373,1.181-.119.389-.237.776-.317,1.012a1.2,1.2,0,0,0,.011.979,1.034,1.034,0,0,0,.69.506,4.383,4.383,0,0,1,.486.146c.092.031.171.053.226.067a1.228,1.228,0,0,0,.317.045.979.979,0,0,0,.294-.056,1.535,1.535,0,0,1-.011-.7c.037-.25.264-1.213.554-2.452.082-.352.153-.675.2-.9a.8.8,0,0,1,.136-.27,1.3,1.3,0,0,0-.305-.146l-.486-.146A1.493,1.493,0,0,0,12,7.514Zm1.741.416c-.263,0-.339.292-.339.292-.188.821-.721,3.031-.758,3.329a1.3,1.3,0,0,0,.17.911l-.656,2.407s-1.08,1.555-1.379,2c-.225.336-.375.7,0,1,.413.336.748-.114.972-.337.188-.224,1.049-1.4,1.312-1.7a2.534,2.534,0,0,0,.294-.517c.034-.1.375-.82.531-1.17.838,1.295,1.98,3.061,2.193,3.352.338.411.647.644,1.1.382a.721.721,0,0,0,.113-1.046c-.225-.373-2.8-4.511-2.8-4.511l.407-1.541s.3.575.452.8c.075.112.151.146.339.259.225.112,1.121.56,1.459.709.3.149.676.194.825-.067.187-.262-.035-.6-.26-.709-.263-.112-1.651-.821-1.651-.821s-.526-1.545-.825-2.216c-.263-.672-.481-.81-.893-.81Z" transform="translate(-0.037)" fill="#aa87e5"/>
  </g>
</svg>
