<svg id="outillage-38x38" xmlns="http://www.w3.org/2000/svg" width="38" height="38" viewBox="0 0 38 38">
  <rect id="Rectangle_8" data-name="Rectangle 8" width="38" height="38" rx="19" fill="#38c2ff" opacity="0.2"/>
  <g id="outillage-18x18" transform="translate(10 10)">
    <path id="icons8-wrench" d="M15.75,3a5.24,5.24,0,0,0-4.893,7.143L6,15a3,3,0,1,0,3,3l4.857-4.857a5.24,5.24,0,0,0,6.785-6.785L18,9H15V6l2.643-2.643A5.235,5.235,0,0,0,15.75,3ZM6,16.5A1.5,1.5,0,1,1,4.5,18,1.489,1.489,0,0,1,6,16.5Z" transform="translate(-3 -3)" fill="#38c2ff"/>
  </g>
</svg>
