<svg id="transport-38x38" xmlns="http://www.w3.org/2000/svg" width="38" height="38" viewBox="0 0 38 38">
  <rect id="Rectangle_8" data-name="Rectangle 8" width="38" height="38" rx="19" fill="#aa87e5" opacity="0.2"/>
  <g id="transport-18x14" transform="translate(10 12)">
    <path id="icons8-people_in_car" d="M7.282,4A2.767,2.767,0,0,0,4.668,5.785L3.243,9.706A2.645,2.645,0,0,0,2,11.936v4.73A1.359,1.359,0,0,0,3.385,18a1.359,1.359,0,0,0,1.385-1.333v-.841S8.425,16,11,16s6.231-.174,6.231-.174v.841a1.386,1.386,0,0,0,2.769,0v-4.73a2.648,2.648,0,0,0-1.243-2.23L17.334,5.786A2.77,2.77,0,0,0,14.718,4Zm0,1.333h7.437a1.384,1.384,0,0,1,1.308.893l.792,2.182a.483.483,0,0,1-.545.632A34.338,34.338,0,0,0,11,8.667a34.338,34.338,0,0,0-5.273.374.483.483,0,0,1-.545-.632l.792-2.182A1.384,1.384,0,0,1,7.282,5.333ZM8.577,6A1,1,0,1,0,9.615,7,1.02,1.02,0,0,0,8.577,6Zm4.846,0a1,1,0,1,0,1.038,1A1.02,1.02,0,0,0,13.423,6ZM5.115,11.333a1,1,0,1,1-1.038,1A1.02,1.02,0,0,1,5.115,11.333Zm3.808,0h4.154a.667.667,0,1,1,0,1.333H8.923a.667.667,0,1,1,0-1.333Zm7.962,0a1,1,0,1,1-1.038,1A1.02,1.02,0,0,1,16.885,11.333Z" transform="translate(-2 -4)" fill="#aa87e5"/>
  </g>
</svg>
