<svg id="vetements-38x38" xmlns="http://www.w3.org/2000/svg" width="38" height="38" viewBox="0 0 38 38">
  <rect id="Rectangle_8" data-name="Rectangle 8" width="38" height="38" rx="19" fill="#d6f8f1"/>
  <g id="vetements-20x16" transform="translate(9 11)">
    <path id="icons8-clothes" d="M7.06,4A4.247,4.247,0,0,0,4.03,5.278L1.209,8.151a.736.736,0,0,0,0,1.028L3.056,11.06a.7.7,0,0,0,1.01,0L5.286,9.818v8.727A1.441,1.441,0,0,0,6.714,20h8.571a1.441,1.441,0,0,0,1.429-1.455V9.818l1.219,1.241a.7.7,0,0,0,1.01,0L20.79,9.179a.736.736,0,0,0,0-1.028L17.969,5.278A4.247,4.247,0,0,0,14.939,4H7.06ZM8.68,5.455h4.64a2.577,2.577,0,0,1-4.64,0Z" transform="translate(-1 -4)" fill="#34d9b8"/>
  </g>
</svg>
