<svg id="atelier-18x18" xmlns="http://www.w3.org/2000/svg" width="18.111" height="18" viewBox="0 0 18.111 18">
  <path id="icons8-idea" d="M8.887-.033A.809.809,0,0,0,8.8-.011.694.694,0,0,0,8.26.681V2.758a.692.692,0,1,0,1.384,0V.681a.693.693,0,0,0-.757-.714ZM2.939,2.412A.688.688,0,0,0,2.4,2.9a.7.7,0,0,0,.195.7L4.063,5.072A.692.692,0,1,0,5.037,4.1L3.566,2.628A.7.7,0,0,0,3,2.412Zm11.81,0a.7.7,0,0,0-.411.216L12.867,4.1a.692.692,0,1,0,.973.973L15.312,3.6a.692.692,0,0,0-.562-1.19Zm-5.8,2.509A4.023,4.023,0,0,0,4.929,8.944c0,2.282,1.968,3.61,1.968,4.78v.281a.525.525,0,0,0,.519.519h3.072a.525.525,0,0,0,.519-.519v-.281c0-1.173,1.968-2.461,1.968-4.78A4.023,4.023,0,0,0,8.952,4.921Zm0,1.341a2.646,2.646,0,0,1,1.384.389c-.049,0-.1-.022-.151-.022a3.412,3.412,0,0,0-3.418,3.4c0,.116.011.233.022.346a2.586,2.586,0,0,1,2.163-4.11ZM.451,8.3A.7.7,0,0,0,.646,9.68H2.722a.692.692,0,1,0,0-1.384H.451Zm14.536,0a.7.7,0,0,0,.195,1.384h2.077a.692.692,0,1,0,0-1.384H14.987ZM4.474,12.686a.7.7,0,0,0-.411.216L2.593,14.374a.692.692,0,1,0,.973.973l1.471-1.471a.692.692,0,0,0-.5-1.19Zm8.739,0a.688.688,0,0,0-.541.487.7.7,0,0,0,.195.7l1.471,1.471a.692.692,0,1,0,.973-.973L13.841,12.9a.692.692,0,0,0-.5-.216h-.13ZM7.395,15.217a.521.521,0,0,0-.519.519v1.038a.521.521,0,0,0,.519.519h.433a1.279,1.279,0,0,0,2.25,0h.433a.521.521,0,0,0,.519-.519V15.736a.521.521,0,0,0-.519-.519Z" transform="translate(0.151 0.036)" fill="#fdc641"/>
</svg>
